<?xml version="1.0" encoding="UTF-8" standalone="no" ?>
<!DOCTYPE svg PUBLIC "-//W3C//DTD SVG 1.1//EN" "http://www.w3.org/Graphics/SVG/1.1/DTD/svg11.dtd">
<svg xmlns="http://www.w3.org/2000/svg" xmlns:xlink="http://www.w3.org/1999/xlink" version="1.1" width="1280" height="1024" viewBox="0 0 1280 1024" xml:space="preserve">
<desc>Created with Fabric.js 5.3.0</desc>
<defs>
</defs>
<g transform="matrix(1 0 0 1 640 512)" id="background-logo"  >
<rect style="stroke: none; stroke-width: 0; stroke-dasharray: none; stroke-linecap: butt; stroke-dashoffset: 0; stroke-linejoin: miter; stroke-miterlimit: 4; fill: rgb(255,255,255); fill-rule: nonzero; opacity: 1;"  paint-order="stroke"  x="-640" y="-512" rx="0" ry="0" width="1280" height="1024" />
</g>
<g transform="matrix(1.9211538461538462 0 0 1.9211538461538462 640 398.65526943434304)" id="logo-logo"  >
<g style=""  paint-order="stroke"   >
		<g transform="matrix(2.036685347910678 0 0 -2.0366853479106775 -53.89310246953187 0)"  >
<path style="stroke: none; stroke-width: 1; stroke-dasharray: none; stroke-linecap: butt; stroke-dashoffset: 0; stroke-linejoin: miter; stroke-miterlimit: 4; fill: rgb(85,102,123); fill-rule: nonzero; opacity: 1;"  paint-order="stroke"  transform=" translate(-10.459803405124626, -27.902386304014698)" d="M 0 0 C -1.709 3.254 -2.054 6.961 -0.971 10.44 L 11.713 51.186 C 13.479 56.858 18.875999999999998 60.818 24.839 60.818 C 25.247 60.818 25.654 60.799 26.06 60.762 C 27.759 60.605000000000004 29.311 61.748 29.819 63.377 C 30.519 65.61800000000001 29.011 68.01 26.672 68.21600000000001 C 26.063000000000002 68.269 25.452 68.296 24.839000000000002 68.296 C 15.636000000000003 68.296 7.302000000000003 62.175000000000004 4.573000000000004 53.409000000000006 L -8.111 12.663 C -9.787 7.277 -9.258 1.545 -6.62 -3.477 C -4.714 -7.105 -1.8780000000000001 -10.035 1.5810000000000004 -12.014000000000001 C 3.6320000000000006 -13.188 6.253 -12.095 6.958 -9.839000000000002 L 6.958 -9.839000000000002 C 7.478 -8.172 6.771 -6.374 5.258 -5.5 C 3.044 -4.221 1.226 -2.334 0 0" stroke-linecap="round" />
</g>
		<g transform="matrix(2.036685347910678 0 0 -2.0366853479106775 53.89310246953187 0)"  >
<path style="stroke: none; stroke-width: 1; stroke-dasharray: none; stroke-linecap: butt; stroke-dashoffset: 0; stroke-linejoin: miter; stroke-miterlimit: 4; fill: rgb(49,163,226); fill-rule: nonzero; opacity: 1;"  paint-order="stroke"  transform=" translate(10.459803405124624, -27.902386304014698)" d="M 0 0 C 1.709 3.254 2.054 6.961 0.971 10.44 L -11.713 51.186 C -13.479 56.858 -18.875999999999998 60.818 -24.839 60.818 C -25.247 60.818 -25.654 60.799 -26.06 60.762 C -27.759 60.605000000000004 -29.311 61.748 -29.819 63.377 C -30.519 65.61800000000001 -29.011 68.01 -26.672 68.21600000000001 C -26.063000000000002 68.269 -25.452 68.296 -24.839000000000002 68.296 C -15.636000000000003 68.296 -7.302000000000003 62.175000000000004 -4.573000000000004 53.409000000000006 L 8.111 12.663 C 9.787 7.277 9.258 1.545 6.62 -3.477 C 4.714 -7.105 1.8780000000000001 -10.035 -1.5810000000000004 -12.014000000000001 C -3.6320000000000006 -13.188 -6.253 -12.095 -6.958 -9.839000000000002 L -6.958 -9.839000000000002 C -7.478 -8.172000000000002 -6.771 -6.374000000000002 -5.258 -5.500000000000002 C -3.044 -4.221000000000002 -1.226 -2.334000000000002 0 -1.7763568394002505e-15" stroke-linecap="round" />
</g>
		<g transform="matrix(2.036685347910678 0 0 -2.0366853479106775 0 20.28916798852964)"  >
<path style="stroke: none; stroke-width: 1; stroke-dasharray: none; stroke-linecap: butt; stroke-dashoffset: 0; stroke-linejoin: miter; stroke-miterlimit: 4; fill: rgb(85,102,123); fill-rule: nonzero; opacity: 1;"  paint-order="stroke"  transform=" translate(13.8915, -2.6988508824618833)" d="M 0 0 C 0 -8.26 -7.247 -14.861 -15.718 -13.775 C -22.721 -12.876000000000001 -27.783 -6.5760000000000005 -27.783 0.484 L -27.783 23.029000000000003 C -27.783 25.094000000000005 -29.457 26.768000000000004 -31.522000000000002 26.768000000000004 C -33.587 26.768000000000004 -35.261 25.094000000000005 -35.261 23.029000000000003 L -35.261 0.626 C -35.261 -10.495000000000001 -27.024 -20.23 -15.953000000000003 -21.273 C -3.247 -22.47 7.478 -12.464 7.478 0 L 7.478 23.029 C 7.478 25.094 5.804 26.768 3.739 26.768 L 3.739 26.768 C 1.674 26.768 0 25.094 0 23.029 Z" stroke-linecap="round" />
</g>
		<g transform="matrix(2.036685347910678 0 0 -2.0366853479106775 0 -12.04669349318948)"  >
<path style="stroke: none; stroke-width: 1; stroke-dasharray: none; stroke-linecap: butt; stroke-dashoffset: 0; stroke-linejoin: miter; stroke-miterlimit: 4; fill: rgb(49,163,226); fill-rule: nonzero; opacity: 1;"  paint-order="stroke"  transform=" translate(0.6480000000000001, -20.113500000000002)" d="M 0 0 L -1.296 0 C -3.003 0 -4.3870000000000005 1.384 -4.3870000000000005 3.091 L -4.3870000000000005 37.136 C -4.3870000000000005 38.844 -3.0030000000000006 40.227000000000004 -1.2960000000000003 40.227000000000004 L 0 40.227000000000004 C 1.707 40.227000000000004 3.091 38.844 3.091 37.136 L 3.091 3.091 C 3.091 1.384 1.707 0 0 0" stroke-linecap="round" />
</g>
</g>
</g>
<g transform="matrix(1.9211538461538462 0 0 1.9211538461538462 642.3167055817866 665.8860127727845)" id="text-logo"  >
<g style=""  paint-order="stroke"   >
		<g transform="matrix(1 0 0 1 0 0)" id="text-logo-path-0"  >
<path style="stroke: rgb(85,102,123); stroke-width: 1.2861007909761706; stroke-dasharray: none; stroke-linecap: butt; stroke-dashoffset: 0; stroke-linejoin: miter; stroke-miterlimit: 4; fill: rgb(85,102,123); fill-rule: nonzero; opacity: 1;"  paint-order="stroke"  transform=" translate(-311.09994416819666, 18)" d="M 22.27 -7.56 L 22.27 -13.28 Q 22.27 -14.31 21.51 -15.28 Q 20.75 -16.25 18.81 -16.38 L 18.81 -16.38 Q 17.55 -14.85 15.75 -14.85 L 15.75 -14.85 Q 14.22 -14.85 13.14 -15.93 Q 12.06 -17.01 12.06 -18.59 L 12.06 -18.59 Q 12.06 -20.16 13.14 -21.24 Q 14.22 -22.32 15.75 -22.32 L 15.75 -22.32 Q 16.56 -22.32 17.35 -21.87 Q 18.13 -21.42 18.77 -20.79 L 18.77 -20.79 Q 19.75 -20.84 20.29 -21.11 Q 20.84 -21.38 21.08 -21.76 Q 21.33 -22.14 21.38 -22.63 Q 21.42 -23.13 21.42 -23.63 L 21.42 -23.63 L 21.42 -28.17 Q 21.42 -29.29 20.72 -30.24 Q 20.02 -31.18 18.36 -31.18 L 18.36 -31.18 L 8.96 -31.18 L 8.91 -1.48 Q 8.91 -0.58 8.08 -0.11 Q 7.25 0.36 6.25 0.36 L 6.25 0.36 Q 3.6 0.36 3.6 -1.8 L 3.6 -1.8 L 3.6 -33.03 Q 3.6 -34.65 4.43 -35.19 Q 5.26 -35.73 6.43 -35.73 L 6.43 -35.73 L 19.48 -35.73 Q 20.65 -35.73 21.98 -35.28 Q 23.31 -34.83 24.48 -34.06 L 24.48 -34.06 L 24.43 -34.06 Q 25.61 -33.21 26.17 -31.81 Q 26.73 -30.42 26.73 -28.57 L 26.73 -28.57 L 26.73 -23.49 Q 26.73 -21.69 25.96 -20.54 Q 25.2 -19.39 24.34 -18.72 L 24.34 -18.72 Q 24.93 -18.36 25.47 -17.98 Q 26.01 -17.59 26.37 -17.14 L 26.37 -17.14 Q 26.95 -16.52 27.29 -15.66 Q 27.63 -14.8 27.63 -13.63 L 27.63 -13.63 L 27.63 -7.2 Q 27.63 -3.51 24.75 -1.75 L 24.75 -1.75 Q 23.31 -0.85 22.03 -0.4 Q 20.75 0.04 19.48 0.04 L 19.48 0.04 L 12.82 0.04 Q 12.06 0.04 11.63 -0.58 Q 11.21 -1.21 11.21 -2.25 L 11.21 -2.25 Q 11.21 -4.5 13.09 -4.5 L 13.09 -4.5 L 19.26 -4.5 Q 20.93 -4.5 21.6 -5.44 Q 22.27 -6.39 22.27 -7.56 L 22.27 -7.56 Z M 65.11 -1.08 L 55.22 -31.32 L 45.36 -1.08 L 45.36 -1.13 Q 45.09 -0.45 44.62 -0.02 Q 44.15 0.4 43.47 0.4 L 43.47 0.4 Q 43.11 0.4 42.77 0.34 Q 42.44 0.27 42.08 0.18 L 42.08 0.18 L 42.12 0.18 Q 39.55 -0.63 40.23 -2.7 L 40.23 -2.7 L 50.49 -33.88 Q 50.72 -34.6 51.28 -35.1 Q 51.84 -35.59 52.61 -35.68 L 52.61 -35.68 Q 53.37 -35.82 54.09 -35.89 Q 54.81 -35.95 55.22 -35.95 L 55.22 -35.95 Q 55.62 -35.95 56.34 -35.89 Q 57.06 -35.82 57.83 -35.73 L 57.83 -35.73 Q 58.45 -35.64 59.06 -35.05 Q 59.67 -34.47 59.98 -33.88 L 59.98 -33.88 Q 62.5 -26.14 65.09 -18.29 Q 67.68 -10.44 70.2 -2.7 L 70.2 -2.7 Q 70.83 -0.63 68.31 0.18 L 68.31 0.18 Q 67.95 0.27 67.66 0.34 Q 67.36 0.4 67 0.4 L 67 0.4 Q 66.38 0.4 65.86 -0.02 Q 65.34 -0.45 65.11 -1.13 L 65.11 -1.13 L 65.11 -1.08 Z M 58.59 -10.8 L 58.59 -10.8 Q 58.59 -9.36 57.58 -8.35 Q 56.56 -7.33 55.13 -7.33 L 55.13 -7.33 Q 53.69 -7.33 52.7 -8.35 Q 51.7 -9.36 51.7 -10.8 L 51.7 -10.8 Q 51.7 -12.24 52.7 -13.25 Q 53.69 -14.26 55.13 -14.26 L 55.13 -14.26 Q 56.56 -14.26 57.58 -13.25 Q 58.59 -12.24 58.59 -10.8 Z M 96.39 -13.63 L 96.39 -1.8 Q 96.39 0.36 93.73 0.36 L 93.73 0.36 Q 91.08 0.36 91.08 -1.8 L 91.08 -1.8 L 91.08 -13.77 L 81 -32.94 Q 80.73 -33.52 80.73 -34.16 L 80.73 -34.16 Q 80.73 -35.46 82.26 -36.09 L 82.26 -36.09 L 82.22 -36.09 Q 83.21 -36.45 83.79 -36.45 L 83.79 -36.45 Q 84.96 -36.45 85.59 -35.28 L 85.59 -35.28 L 93.78 -19.89 Q 94.68 -21.6 95.72 -23.56 Q 96.75 -25.52 97.81 -27.54 Q 98.87 -29.56 99.9 -31.54 Q 100.94 -33.52 101.88 -35.28 L 101.88 -35.28 Q 102.24 -35.82 102.67 -36.13 Q 103.09 -36.45 103.73 -36.45 L 103.73 -36.45 Q 104.36 -36.45 105.21 -36.09 L 105.21 -36.09 L 105.17 -36.09 Q 106.74 -35.41 106.74 -34.11 L 106.74 -34.11 Q 106.74 -33.84 106.7 -33.55 Q 106.65 -33.25 106.47 -32.94 L 106.47 -32.94 Q 106.06 -32.13 105.46 -30.96 Q 104.85 -29.79 103.75 -27.7 Q 102.65 -25.61 100.89 -22.25 Q 99.14 -18.9 96.39 -13.63 L 96.39 -13.63 Z M 164.47 -1.08 L 154.57 -31.32 L 144.72 -1.08 L 144.72 -1.13 Q 144.45 -0.45 143.98 -0.02 Q 143.5 0.4 142.83 0.4 L 142.83 0.4 Q 142.47 0.4 142.13 0.34 Q 141.79 0.27 141.43 0.18 L 141.43 0.18 L 141.48 0.18 Q 138.91 -0.63 139.59 -2.7 L 139.59 -2.7 L 149.85 -33.88 Q 150.07 -34.6 150.64 -35.1 Q 151.2 -35.59 151.96 -35.68 L 151.96 -35.68 Q 152.73 -35.82 153.45 -35.89 Q 154.17 -35.95 154.57 -35.95 L 154.57 -35.95 Q 154.98 -35.95 155.7 -35.89 Q 156.42 -35.82 157.18 -35.73 L 157.18 -35.73 Q 157.81 -35.64 158.42 -35.05 Q 159.03 -34.47 159.34 -33.88 L 159.34 -33.88 Q 161.86 -26.14 164.45 -18.29 Q 167.04 -10.44 169.56 -2.7 L 169.56 -2.7 Q 170.19 -0.63 167.67 0.18 L 167.67 0.18 Q 167.31 0.27 167.02 0.34 Q 166.72 0.4 166.36 0.4 L 166.36 0.4 Q 165.73 0.4 165.22 -0.02 Q 164.7 -0.45 164.47 -1.13 L 164.47 -1.13 L 164.47 -1.08 Z M 157.95 -10.8 L 157.95 -10.8 Q 157.95 -9.36 156.94 -8.35 Q 155.92 -7.33 154.48 -7.33 L 154.48 -7.33 Q 153.04 -7.33 152.05 -8.35 Q 151.06 -9.36 151.06 -10.8 L 151.06 -10.8 Q 151.06 -12.24 152.05 -13.25 Q 153.04 -14.26 154.48 -14.26 L 154.48 -14.26 Q 155.92 -14.26 156.94 -13.25 Q 157.95 -12.24 157.95 -10.8 Z M 203.85 -0.54 L 195.34 -14.8 L 191.88 -14.8 Q 191.11 -14.8 190.69 -15.41 Q 190.26 -16.02 190.26 -17.05 L 190.26 -17.05 Q 190.26 -19.35 192.15 -19.35 L 192.15 -19.35 L 197.41 -19.35 Q 199.08 -19.35 199.75 -20.29 Q 200.43 -21.24 200.43 -22.36 L 200.43 -22.36 L 200.43 -28.17 Q 200.43 -29.29 199.75 -30.24 Q 199.08 -31.18 197.41 -31.18 L 197.41 -31.18 L 187.92 -31.18 L 187.92 -1.84 Q 187.92 0.32 185.26 0.32 L 185.26 0.32 Q 182.61 0.32 182.61 -1.84 L 182.61 -1.84 L 182.61 -33.03 Q 182.61 -34.65 183.44 -35.19 Q 184.27 -35.73 185.44 -35.73 L 185.44 -35.73 L 198.54 -35.73 Q 199.71 -35.73 200.97 -35.23 Q 202.23 -34.74 203.4 -33.98 L 203.4 -33.98 L 203.35 -33.98 Q 204.52 -33.12 205.16 -31.75 Q 205.78 -30.38 205.78 -28.57 L 205.78 -28.57 L 205.78 -22 Q 205.78 -18.36 203.35 -16.56 L 203.35 -16.56 Q 202.86 -16.2 202.3 -15.88 Q 201.73 -15.57 201.15 -15.25 L 201.15 -15.25 L 208.35 -3.38 Q 208.48 -3.15 208.62 -2.79 Q 208.75 -2.43 208.75 -2.21 L 208.75 -2.21 Q 208.75 -1.13 207.22 -0.14 L 207.22 -0.14 L 207.22 -0.18 Q 206.19 0.45 205.47 0.45 L 205.47 0.45 Q 204.44 0.45 203.8 -0.58 L 203.8 -0.58 L 203.85 -0.54 Z M 241.29 0.04 L 224.82 0.04 Q 223.15 0.04 222.57 -0.81 Q 221.98 -1.67 221.98 -2.7 L 221.98 -2.7 L 221.98 -33.03 Q 221.98 -34.06 222.57 -34.9 Q 223.15 -35.73 224.82 -35.73 L 224.82 -35.73 L 240.48 -35.73 Q 242.14 -35.73 242.23 -33.48 L 242.23 -33.48 Q 242.32 -31.18 240.48 -31.18 L 240.48 -31.18 L 227.29 -31.18 L 227.29 -4.5 L 241.29 -4.5 Q 242.95 -4.5 243 -2.29 L 243 -2.29 Q 243.09 0.04 241.29 0.04 L 241.29 0.04 Z M 238.81 -18.59 L 238.81 -18.59 Q 238.81 -17.01 237.71 -15.93 Q 236.61 -14.85 235.03 -14.85 L 235.03 -14.85 Q 233.5 -14.85 232.42 -15.93 Q 231.34 -17.01 231.34 -18.59 L 231.34 -18.59 Q 231.34 -20.16 232.42 -21.24 Q 233.5 -22.32 235.03 -22.32 L 235.03 -22.32 Q 236.61 -22.32 237.71 -21.24 Q 238.81 -20.16 238.81 -18.59 Z M 278.59 -1.08 L 268.69 -31.32 L 258.84 -1.08 L 258.84 -1.13 Q 258.57 -0.45 258.1 -0.02 Q 257.62 0.4 256.95 0.4 L 256.95 0.4 Q 256.59 0.4 256.25 0.34 Q 255.91 0.27 255.55 0.18 L 255.55 0.18 L 255.6 0.18 Q 253.03 -0.63 253.71 -2.7 L 253.71 -2.7 L 263.97 -33.88 Q 264.19 -34.6 264.76 -35.1 Q 265.32 -35.59 266.08 -35.68 L 266.08 -35.68 Q 266.85 -35.82 267.57 -35.89 Q 268.29 -35.95 268.69 -35.95 L 268.69 -35.95 Q 269.1 -35.95 269.82 -35.89 Q 270.54 -35.82 271.3 -35.73 L 271.3 -35.73 Q 271.93 -35.64 272.54 -35.05 Q 273.15 -34.47 273.46 -33.88 L 273.46 -33.88 Q 275.98 -26.14 278.57 -18.29 Q 281.16 -10.44 283.68 -2.7 L 283.68 -2.7 Q 284.31 -0.63 281.79 0.18 L 281.79 0.18 Q 281.43 0.27 281.14 0.34 Q 280.84 0.4 280.48 0.4 L 280.48 0.4 Q 279.85 0.4 279.34 -0.02 Q 278.82 -0.45 278.59 -1.13 L 278.59 -1.13 L 278.59 -1.08 Z M 272.07 -10.8 L 272.07 -10.8 Q 272.07 -9.36 271.06 -8.35 Q 270.04 -7.33 268.6 -7.33 L 268.6 -7.33 Q 267.16 -7.33 266.17 -8.35 Q 265.18 -9.36 265.18 -10.8 L 265.18 -10.8 Q 265.18 -12.24 266.17 -13.25 Q 267.16 -14.26 268.6 -14.26 L 268.6 -14.26 Q 270.04 -14.26 271.06 -13.25 Q 272.07 -12.24 272.07 -10.8 Z M 327.6 -20.56 L 336.28 -20.56 Q 337.45 -20.56 338.71 -20.07 Q 339.97 -19.57 341.14 -18.77 L 341.14 -18.77 L 341.1 -18.77 Q 342.27 -17.95 342.9 -16.56 Q 343.53 -15.16 343.53 -13.37 L 343.53 -13.37 L 343.53 -7.2 Q 343.53 -3.55 341.1 -1.75 L 341.1 -1.75 Q 339.93 -0.9 338.69 -0.43 Q 337.45 0.04 336.28 0.04 L 336.28 0.04 L 326.47 0.04 Q 325.3 0.04 324.07 -0.43 Q 322.83 -0.9 321.66 -1.75 L 321.66 -1.75 Q 319.23 -3.55 319.23 -7.2 L 319.23 -7.2 L 319.23 -10.17 Q 319.23 -12.29 321.88 -12.29 L 321.88 -12.29 Q 324.58 -12.29 324.58 -10.17 L 324.58 -10.17 L 324.58 -7.56 Q 324.58 -6.39 325.26 -5.44 Q 325.93 -4.5 327.6 -4.5 L 327.6 -4.5 L 335.16 -4.5 Q 336.82 -4.5 337.5 -5.44 Q 338.17 -6.39 338.17 -7.56 L 338.17 -7.56 L 338.17 -13 Q 338.17 -14.13 337.5 -15.1 Q 336.82 -16.06 335.16 -16.06 L 335.16 -16.06 L 326.47 -16.06 Q 324.13 -16.06 321.66 -17.77 L 321.66 -17.77 Q 319.23 -19.66 319.23 -23.22 L 319.23 -23.22 L 319.23 -28.57 Q 319.23 -30.38 319.86 -31.75 Q 320.49 -33.12 321.66 -33.98 L 321.66 -33.98 L 321.61 -33.98 Q 322.78 -34.74 324.04 -35.23 Q 325.3 -35.73 326.47 -35.73 L 326.47 -35.73 L 336.28 -35.73 Q 337.45 -35.73 338.71 -35.23 Q 339.97 -34.74 341.14 -33.98 L 341.14 -33.98 L 341.1 -33.98 Q 342.27 -33.12 342.9 -31.75 Q 343.53 -30.38 343.53 -28.57 L 343.53 -28.57 L 343.53 -25.92 Q 343.53 -23.8 340.83 -23.8 L 340.83 -23.8 Q 338.17 -23.8 338.17 -25.92 L 338.17 -25.92 L 338.17 -28.17 Q 338.17 -29.29 337.5 -30.24 Q 336.82 -31.18 335.16 -31.18 L 335.16 -31.18 L 327.6 -31.18 Q 325.93 -31.18 325.26 -30.24 Q 324.58 -29.29 324.58 -28.17 L 324.58 -28.17 L 324.58 -23.58 Q 324.58 -22.41 325.26 -21.49 Q 325.93 -20.56 327.6 -20.56 L 327.6 -20.56 Z M 366.79 -35.73 L 376.6 -35.73 Q 377.77 -35.73 379.03 -35.23 Q 380.29 -34.74 381.46 -33.98 L 381.46 -33.98 L 381.42 -33.98 Q 382.59 -33.12 383.22 -31.75 Q 383.85 -30.38 383.85 -28.57 L 383.85 -28.57 L 383.85 -7.2 Q 383.85 -3.55 381.42 -1.75 L 381.42 -1.75 Q 380.25 -0.9 379.01 -0.43 Q 377.77 0.04 376.6 0.04 L 376.6 0.04 L 366.79 0.04 Q 365.62 0.04 364.39 -0.43 Q 363.15 -0.9 361.98 -1.75 L 361.98 -1.75 Q 360.81 -2.65 360.18 -3.98 Q 359.55 -5.31 359.55 -7.2 L 359.55 -7.2 L 359.55 -28.57 Q 359.55 -30.38 360.18 -31.75 Q 360.81 -33.12 361.98 -33.98 L 361.98 -33.98 L 361.93 -33.98 Q 363.1 -34.74 364.36 -35.23 Q 365.62 -35.73 366.79 -35.73 L 366.79 -35.73 Z M 367.92 -4.5 L 375.48 -4.5 Q 377.14 -4.5 377.82 -5.44 Q 378.49 -6.39 378.49 -7.56 L 378.49 -7.56 L 378.49 -28.17 Q 378.49 -29.29 377.82 -30.24 Q 377.14 -31.18 375.48 -31.18 L 375.48 -31.18 L 367.92 -31.18 Q 366.25 -31.18 365.58 -30.24 Q 364.9 -29.29 364.9 -28.17 L 364.9 -28.17 L 364.9 -7.56 Q 364.9 -6.39 365.58 -5.44 Q 366.25 -4.5 367.92 -4.5 L 367.92 -4.5 Z M 405 -31.18 L 405 -1.89 Q 405 0.27 402.34 0.27 L 402.34 0.27 Q 399.69 0.27 399.69 -1.89 L 399.69 -1.89 L 399.69 -33.03 Q 399.69 -34.06 400.27 -34.9 Q 400.86 -35.73 402.52 -35.73 L 402.52 -35.73 L 417.82 -35.73 Q 419.44 -35.73 419.53 -33.48 L 419.53 -33.48 Q 419.62 -31.18 417.82 -31.18 L 417.82 -31.18 L 405 -31.18 Z M 416.52 -18.59 L 416.52 -18.59 Q 416.52 -17.82 416.23 -17.12 Q 415.93 -16.43 415.42 -15.93 Q 414.9 -15.43 414.22 -15.14 Q 413.55 -14.85 412.74 -14.85 L 412.74 -14.85 Q 411.21 -14.85 410.13 -15.93 Q 409.05 -17.01 409.05 -18.59 L 409.05 -18.59 Q 409.05 -20.16 410.13 -21.24 Q 411.21 -22.32 412.74 -22.32 L 412.74 -22.32 Q 413.55 -22.32 414.22 -22.03 Q 414.9 -21.73 415.42 -21.22 Q 415.93 -20.7 416.23 -20.02 Q 416.52 -19.35 416.52 -18.59 Z M 445.45 -31.18 L 445.45 -1.8 Q 445.45 0.36 442.75 0.36 L 442.75 0.36 Q 440.1 0.36 440.1 -1.8 L 440.1 -1.8 L 440.1 -31.18 L 432.22 -31.18 Q 430.6 -31.18 430.51 -33.48 L 430.51 -33.48 Q 430.51 -35.73 432.22 -35.73 L 432.22 -35.73 L 453.33 -35.73 Q 455.04 -35.73 454.95 -33.48 L 454.95 -33.48 Q 454.95 -31.18 453.33 -31.18 L 453.33 -31.18 L 445.45 -31.18 Z M 494.19 -10.13 L 499.99 -34.24 L 499.95 -34.2 Q 500.22 -35.19 501.01 -35.64 Q 501.79 -36.09 503.1 -35.87 L 503.1 -35.87 Q 504.4 -35.64 504.97 -35.05 Q 505.53 -34.47 505.21 -33.44 L 505.21 -33.44 L 497.11 -1.17 L 497.11 -1.21 Q 496.89 -0.45 496.1 -0.04 Q 495.31 0.36 494.46 0.36 L 494.46 0.36 Q 493.47 0.36 492.59 0.07 Q 491.71 -0.22 491.49 -1.13 L 491.49 -1.13 L 491.53 -1.08 L 486 -23.04 L 484.78 -23.04 L 479.29 -1.13 Q 479.07 -0.36 478.17 0 Q 477.27 0.36 476.32 0.36 L 476.32 0.36 Q 475.15 0.36 474.46 0.02 Q 473.76 -0.32 473.53 -1.17 L 473.53 -1.17 L 473.58 -1.13 L 465.48 -33.44 Q 465.25 -34.34 465.88 -34.99 Q 466.51 -35.64 467.68 -35.87 L 467.68 -35.87 Q 470.2 -36.27 470.74 -34.2 L 470.74 -34.2 L 470.7 -34.24 L 472.72 -26.1 Q 473.13 -24.48 473.53 -22.79 Q 473.94 -21.11 474.43 -19.19 Q 474.93 -17.28 475.51 -15.03 Q 476.1 -12.78 476.82 -9.99 L 476.82 -9.99 L 482.58 -34.29 Q 482.8 -35.28 483.61 -35.59 Q 484.42 -35.91 485.41 -35.91 L 485.41 -35.91 Q 486.31 -35.91 487.17 -35.57 Q 488.02 -35.23 488.25 -34.2 L 488.25 -34.2 L 494.19 -10.13 Z M 540.05 -1.08 L 530.14 -31.32 L 520.29 -1.08 L 520.29 -1.13 Q 520.02 -0.45 519.55 -0.02 Q 519.08 0.4 518.4 0.4 L 518.4 0.4 Q 518.04 0.4 517.7 0.34 Q 517.37 0.27 517 0.18 L 517 0.18 L 517.05 0.18 Q 514.49 -0.63 515.16 -2.7 L 515.16 -2.7 L 525.42 -33.88 Q 525.64 -34.6 526.21 -35.1 Q 526.77 -35.59 527.54 -35.68 L 527.54 -35.68 Q 528.3 -35.82 529.02 -35.89 Q 529.74 -35.95 530.14 -35.95 L 530.14 -35.95 Q 530.55 -35.95 531.27 -35.89 Q 531.99 -35.82 532.75 -35.73 L 532.75 -35.73 Q 533.38 -35.64 533.99 -35.05 Q 534.6 -34.47 534.92 -33.88 L 534.92 -33.88 Q 537.44 -26.14 540.02 -18.29 Q 542.61 -10.44 545.13 -2.7 L 545.13 -2.7 Q 545.76 -0.63 543.24 0.18 L 543.24 0.18 Q 542.88 0.27 542.59 0.34 Q 542.3 0.4 541.94 0.4 L 541.94 0.4 Q 541.31 0.4 540.79 -0.02 Q 540.27 -0.45 540.05 -1.13 L 540.05 -1.13 L 540.05 -1.08 Z M 533.52 -10.8 L 533.52 -10.8 Q 533.52 -9.36 532.51 -8.35 Q 531.5 -7.33 530.06 -7.33 L 530.06 -7.33 Q 528.62 -7.33 527.63 -8.35 Q 526.63 -9.36 526.63 -10.8 L 526.63 -10.8 Q 526.63 -12.24 527.63 -13.25 Q 528.62 -14.26 530.06 -14.26 L 530.06 -14.26 Q 531.5 -14.26 532.51 -13.25 Q 533.52 -12.24 533.52 -10.8 Z M 579.42 -0.54 L 570.92 -14.8 L 567.45 -14.8 Q 566.69 -14.8 566.26 -15.41 Q 565.83 -16.02 565.83 -17.05 L 565.83 -17.05 Q 565.83 -19.35 567.72 -19.35 L 567.72 -19.35 L 572.99 -19.35 Q 574.65 -19.35 575.33 -20.29 Q 576 -21.24 576 -22.36 L 576 -22.36 L 576 -28.17 Q 576 -29.29 575.33 -30.24 Q 574.65 -31.18 572.99 -31.18 L 572.99 -31.18 L 563.49 -31.18 L 563.49 -1.84 Q 563.49 0.32 560.84 0.32 L 560.84 0.32 Q 558.18 0.32 558.18 -1.84 L 558.18 -1.84 L 558.18 -33.03 Q 558.18 -34.65 559.01 -35.19 Q 559.85 -35.73 561.01 -35.73 L 561.01 -35.73 L 574.11 -35.73 Q 575.28 -35.73 576.54 -35.23 Q 577.8 -34.74 578.97 -33.98 L 578.97 -33.98 L 578.93 -33.98 Q 580.1 -33.12 580.73 -31.75 Q 581.36 -30.38 581.36 -28.57 L 581.36 -28.57 L 581.36 -22 Q 581.36 -18.36 578.93 -16.56 L 578.93 -16.56 Q 578.43 -16.2 577.87 -15.88 Q 577.31 -15.57 576.72 -15.25 L 576.72 -15.25 L 583.92 -3.38 Q 584.06 -3.15 584.19 -2.79 Q 584.33 -2.43 584.33 -2.21 L 584.33 -2.21 Q 584.33 -1.13 582.8 -0.14 L 582.8 -0.14 L 582.8 -0.18 Q 581.76 0.45 581.04 0.45 L 581.04 0.45 Q 580 0.45 579.38 -0.58 L 579.38 -0.58 L 579.42 -0.54 Z M 616.86 0.04 L 600.39 0.04 Q 598.73 0.04 598.14 -0.81 Q 597.56 -1.67 597.56 -2.7 L 597.56 -2.7 L 597.56 -33.03 Q 597.56 -34.06 598.14 -34.9 Q 598.73 -35.73 600.39 -35.73 L 600.39 -35.73 L 616.05 -35.73 Q 617.72 -35.73 617.81 -33.48 L 617.81 -33.48 Q 617.9 -31.18 616.05 -31.18 L 616.05 -31.18 L 602.87 -31.18 L 602.87 -4.5 L 616.86 -4.5 Q 618.53 -4.5 618.57 -2.29 L 618.57 -2.29 Q 618.66 0.04 616.86 0.04 L 616.86 0.04 Z M 614.39 -18.59 L 614.39 -18.59 Q 614.39 -17.01 613.28 -15.93 Q 612.18 -14.85 610.61 -14.85 L 610.61 -14.85 Q 609.08 -14.85 608 -15.93 Q 606.92 -17.01 606.92 -18.59 L 606.92 -18.59 Q 606.92 -20.16 608 -21.24 Q 609.08 -22.32 610.61 -22.32 L 610.61 -22.32 Q 612.18 -22.32 613.28 -21.24 Q 614.39 -20.16 614.39 -18.59 Z" stroke-linecap="round" />
</g>
</g>
</g>
<g transform="matrix(1.9211538461538462 0 0 1.9211538461538462 637.60005859375 752.0899609133768)" id="tagline-927a368f-8c48-4715-88f0-86fe919c46a3-logo"  >
<g style=""  paint-order="stroke"   >
		<g transform="matrix(1 0 0 1 0 -7.52494999999999)" id="tagline-927a368f-8c48-4715-88f0-86fe919c46a3-logo-path-0"  >
<path style="stroke: rgb(49,163,226); stroke-width: 0.5533149386812298; stroke-dasharray: none; stroke-linecap: butt; stroke-dashoffset: 0; stroke-linejoin: miter; stroke-miterlimit: 4; fill: rgb(49,163,226); fill-rule: nonzero; opacity: 1;"  paint-order="stroke"  transform=" translate(-308.36827714940495, 4.57)" d="M 8.62 -2.93 L 10.3 -9.89 L 10.28 -9.88 Q 10.36 -10.17 10.59 -10.3 Q 10.82 -10.43 11.19 -10.36 L 11.19 -10.36 Q 11.57 -10.3 11.73 -10.13 Q 11.9 -9.96 11.8 -9.66 L 11.8 -9.66 L 9.46 -0.34 L 9.46 -0.35 Q 9.4 -0.13 9.17 -0.01 Q 8.94 0.1 8.7 0.1 L 8.7 0.1 Q 8.41 0.1 8.16 0.02 Q 7.9 -0.07 7.84 -0.33 L 7.84 -0.33 L 7.85 -0.31 L 6.25 -6.66 L 5.9 -6.66 L 4.32 -0.33 Q 4.25 -0.1 3.99 0 Q 3.73 0.1 3.46 0.1 L 3.46 0.1 Q 3.12 0.1 2.92 0.01 Q 2.72 -0.09 2.65 -0.34 L 2.65 -0.34 L 2.67 -0.33 L 0.33 -9.66 Q 0.26 -9.92 0.44 -10.11 Q 0.62 -10.3 0.96 -10.36 L 0.96 -10.36 Q 1.69 -10.48 1.85 -9.88 L 1.85 -9.88 L 1.83 -9.89 L 2.42 -7.54 Q 2.54 -7.07 2.65 -6.58 Q 2.77 -6.1 2.91 -5.54 Q 3.06 -4.99 3.22 -4.34 Q 3.39 -3.69 3.6 -2.89 L 3.6 -2.89 L 5.27 -9.91 Q 5.33 -10.19 5.56 -10.28 Q 5.8 -10.37 6.08 -10.37 L 6.08 -10.37 Q 6.34 -10.37 6.59 -10.28 Q 6.84 -10.18 6.9 -9.88 L 6.9 -9.88 L 8.62 -2.93 Z M 23.78 0.01 L 19.02 0.01 Q 18.54 0.01 18.37 -0.23 Q 18.2 -0.48 18.2 -0.78 L 18.2 -0.78 L 18.2 -9.54 Q 18.2 -9.84 18.37 -10.08 Q 18.54 -10.32 19.02 -10.32 L 19.02 -10.32 L 23.54 -10.32 Q 24.02 -10.32 24.05 -9.67 L 24.05 -9.67 Q 24.08 -9.01 23.54 -9.01 L 23.54 -9.01 L 19.73 -9.01 L 19.73 -1.3 L 23.78 -1.3 Q 24.26 -1.3 24.27 -0.66 L 24.27 -0.66 Q 24.3 0.01 23.78 0.01 L 23.78 0.01 Z M 23.06 -5.37 L 23.06 -5.37 Q 23.06 -4.91 22.74 -4.6 Q 22.43 -4.29 21.97 -4.29 L 21.97 -4.29 Q 21.53 -4.29 21.22 -4.6 Q 20.9 -4.91 20.9 -5.37 L 20.9 -5.37 Q 20.9 -5.82 21.22 -6.14 Q 21.53 -6.45 21.97 -6.45 L 21.97 -6.45 Q 22.43 -6.45 22.74 -6.14 Q 23.06 -5.82 23.06 -5.37 Z M 36.27 -2.18 L 36.27 -3.84 Q 36.27 -4.13 36.05 -4.41 Q 35.83 -4.69 35.27 -4.73 L 35.27 -4.73 Q 34.91 -4.29 34.39 -4.29 L 34.39 -4.29 Q 33.94 -4.29 33.63 -4.6 Q 33.32 -4.91 33.32 -5.37 L 33.32 -5.37 Q 33.32 -5.82 33.63 -6.14 Q 33.94 -6.45 34.39 -6.45 L 34.39 -6.45 Q 34.62 -6.45 34.85 -6.32 Q 35.07 -6.19 35.26 -6.01 L 35.26 -6.01 Q 35.54 -6.02 35.7 -6.1 Q 35.85 -6.18 35.93 -6.29 Q 36 -6.4 36.01 -6.54 Q 36.02 -6.68 36.02 -6.83 L 36.02 -6.83 L 36.02 -8.14 Q 36.02 -8.46 35.82 -8.74 Q 35.62 -9.01 35.14 -9.01 L 35.14 -9.01 L 32.42 -9.01 L 32.41 -0.43 Q 32.41 -0.17 32.17 -0.03 Q 31.93 0.1 31.64 0.1 L 31.64 0.1 Q 30.88 0.1 30.88 -0.52 L 30.88 -0.52 L 30.88 -9.54 Q 30.88 -10.01 31.12 -10.17 Q 31.36 -10.32 31.69 -10.32 L 31.69 -10.32 L 35.46 -10.32 Q 35.8 -10.32 36.19 -10.19 Q 36.57 -10.06 36.91 -9.84 L 36.91 -9.84 L 36.89 -9.84 Q 37.23 -9.59 37.39 -9.19 Q 37.56 -8.79 37.56 -8.26 L 37.56 -8.26 L 37.56 -6.79 Q 37.56 -6.27 37.34 -5.93 Q 37.12 -5.6 36.87 -5.41 L 36.87 -5.41 Q 37.04 -5.3 37.19 -5.19 Q 37.35 -5.08 37.45 -4.95 L 37.45 -4.95 Q 37.62 -4.77 37.72 -4.52 Q 37.82 -4.28 37.82 -3.94 L 37.82 -3.94 L 37.82 -2.08 Q 37.82 -1.01 36.98 -0.51 L 36.98 -0.51 Q 36.57 -0.25 36.2 -0.12 Q 35.83 0.01 35.46 0.01 L 35.46 0.01 L 33.54 0.01 Q 33.32 0.01 33.2 -0.17 Q 33.07 -0.35 33.07 -0.65 L 33.07 -0.65 Q 33.07 -1.3 33.62 -1.3 L 33.62 -1.3 L 35.4 -1.3 Q 35.88 -1.3 36.08 -1.57 Q 36.27 -1.85 36.27 -2.18 L 36.27 -2.18 Z M 47.39 -5.94 L 49.89 -5.94 Q 50.23 -5.94 50.6 -5.8 Q 50.96 -5.66 51.3 -5.42 L 51.3 -5.42 L 51.29 -5.42 Q 51.62 -5.19 51.81 -4.78 Q 51.99 -4.38 51.99 -3.86 L 51.99 -3.86 L 51.99 -2.08 Q 51.99 -1.03 51.29 -0.51 L 51.29 -0.51 Q 50.95 -0.26 50.59 -0.12 Q 50.23 0.01 49.89 0.01 L 49.89 0.01 L 47.06 0.01 Q 46.72 0.01 46.36 -0.12 Q 46.01 -0.26 45.67 -0.51 L 45.67 -0.51 Q 44.97 -1.03 44.97 -2.08 L 44.97 -2.08 L 44.97 -2.94 Q 44.97 -3.55 45.73 -3.55 L 45.73 -3.55 Q 46.51 -3.55 46.51 -2.94 L 46.51 -2.94 L 46.51 -2.18 Q 46.51 -1.85 46.71 -1.57 Q 46.9 -1.3 47.39 -1.3 L 47.39 -1.3 L 49.57 -1.3 Q 50.05 -1.3 50.25 -1.57 Q 50.44 -1.85 50.44 -2.18 L 50.44 -2.18 L 50.44 -3.76 Q 50.44 -4.08 50.25 -4.36 Q 50.05 -4.64 49.57 -4.64 L 49.57 -4.64 L 47.06 -4.64 Q 46.38 -4.64 45.67 -5.14 L 45.67 -5.14 Q 44.97 -5.68 44.97 -6.71 L 44.97 -6.71 L 44.97 -8.26 Q 44.97 -8.78 45.15 -9.17 Q 45.33 -9.57 45.67 -9.82 L 45.67 -9.82 L 45.66 -9.82 Q 45.99 -10.04 46.36 -10.18 Q 46.72 -10.32 47.06 -10.32 L 47.06 -10.32 L 49.89 -10.32 Q 50.23 -10.32 50.6 -10.18 Q 50.96 -10.04 51.3 -9.82 L 51.3 -9.82 L 51.29 -9.82 Q 51.62 -9.57 51.81 -9.17 Q 51.99 -8.78 51.99 -8.26 L 51.99 -8.26 L 51.99 -7.49 Q 51.99 -6.88 51.21 -6.88 L 51.21 -6.88 Q 50.44 -6.88 50.44 -7.49 L 50.44 -7.49 L 50.44 -8.14 Q 50.44 -8.46 50.25 -8.74 Q 50.05 -9.01 49.57 -9.01 L 49.57 -9.01 L 47.39 -9.01 Q 46.9 -9.01 46.71 -8.74 Q 46.51 -8.46 46.51 -8.14 L 46.51 -8.14 L 46.51 -6.81 Q 46.51 -6.47 46.71 -6.21 Q 46.9 -5.94 47.39 -5.94 L 47.39 -5.94 Z M 60.83 -9.76 L 60.83 -0.55 Q 60.83 0.08 60.05 0.08 L 60.05 0.08 Q 59.28 0.08 59.28 -0.55 L 59.28 -0.55 L 59.28 -9.76 Q 59.28 -10.39 60.05 -10.39 L 60.05 -10.39 Q 60.83 -10.39 60.83 -9.76 L 60.83 -9.76 Z M 71.58 -9.01 L 71.58 -0.52 Q 71.58 0.1 70.8 0.1 L 70.8 0.1 Q 70.03 0.1 70.03 -0.52 L 70.03 -0.52 L 70.03 -9.01 L 67.76 -9.01 Q 67.29 -9.01 67.26 -9.67 L 67.26 -9.67 Q 67.26 -10.32 67.76 -10.32 L 67.76 -10.32 L 73.85 -10.32 Q 74.35 -10.32 74.32 -9.67 L 74.32 -9.67 Q 74.32 -9.01 73.85 -9.01 L 73.85 -9.01 L 71.58 -9.01 Z M 86.27 0.01 L 81.51 0.01 Q 81.03 0.01 80.86 -0.23 Q 80.69 -0.48 80.69 -0.78 L 80.69 -0.78 L 80.69 -9.54 Q 80.69 -9.84 80.86 -10.08 Q 81.03 -10.32 81.51 -10.32 L 81.51 -10.32 L 86.03 -10.32 Q 86.52 -10.32 86.54 -9.67 L 86.54 -9.67 Q 86.57 -9.01 86.03 -9.01 L 86.03 -9.01 L 82.23 -9.01 L 82.23 -1.3 L 86.27 -1.3 Q 86.75 -1.3 86.76 -0.66 L 86.76 -0.66 Q 86.79 0.01 86.27 0.01 L 86.27 0.01 Z M 85.55 -5.37 L 85.55 -5.37 Q 85.55 -4.91 85.23 -4.6 Q 84.92 -4.29 84.46 -4.29 L 84.46 -4.29 Q 84.02 -4.29 83.71 -4.6 Q 83.4 -4.91 83.4 -5.37 L 83.4 -5.37 Q 83.4 -5.82 83.71 -6.14 Q 84.02 -6.45 84.46 -6.45 L 84.46 -6.45 Q 84.92 -6.45 85.23 -6.14 Q 85.55 -5.82 85.55 -5.37 Z M 95.78 -5.94 L 98.29 -5.94 Q 98.63 -5.94 99 -5.8 Q 99.36 -5.66 99.7 -5.42 L 99.7 -5.42 L 99.68 -5.42 Q 100.02 -5.19 100.2 -4.78 Q 100.39 -4.38 100.39 -3.86 L 100.39 -3.86 L 100.39 -2.08 Q 100.39 -1.03 99.68 -0.51 L 99.68 -0.51 Q 99.35 -0.26 98.99 -0.12 Q 98.63 0.01 98.29 0.01 L 98.29 0.01 L 95.46 0.01 Q 95.12 0.01 94.76 -0.12 Q 94.41 -0.26 94.07 -0.51 L 94.07 -0.51 Q 93.37 -1.03 93.37 -2.08 L 93.37 -2.08 L 93.37 -2.94 Q 93.37 -3.55 94.13 -3.55 L 94.13 -3.55 Q 94.91 -3.55 94.91 -2.94 L 94.91 -2.94 L 94.91 -2.18 Q 94.91 -1.85 95.11 -1.57 Q 95.3 -1.3 95.78 -1.3 L 95.78 -1.3 L 97.97 -1.3 Q 98.45 -1.3 98.64 -1.57 Q 98.84 -1.85 98.84 -2.18 L 98.84 -2.18 L 98.84 -3.76 Q 98.84 -4.08 98.64 -4.36 Q 98.45 -4.64 97.97 -4.64 L 97.97 -4.64 L 95.46 -4.64 Q 94.78 -4.64 94.07 -5.14 L 94.07 -5.14 Q 93.37 -5.68 93.37 -6.71 L 93.37 -6.71 L 93.37 -8.26 Q 93.37 -8.78 93.55 -9.17 Q 93.73 -9.57 94.07 -9.82 L 94.07 -9.82 L 94.06 -9.82 Q 94.39 -10.04 94.76 -10.18 Q 95.12 -10.32 95.46 -10.32 L 95.46 -10.32 L 98.29 -10.32 Q 98.63 -10.32 99 -10.18 Q 99.36 -10.04 99.7 -9.82 L 99.7 -9.82 L 99.68 -9.82 Q 100.02 -9.57 100.2 -9.17 Q 100.39 -8.78 100.39 -8.26 L 100.39 -8.26 L 100.39 -7.49 Q 100.39 -6.88 99.61 -6.88 L 99.61 -6.88 Q 98.84 -6.88 98.84 -7.49 L 98.84 -7.49 L 98.84 -8.14 Q 98.84 -8.46 98.64 -8.74 Q 98.45 -9.01 97.97 -9.01 L 97.97 -9.01 L 95.78 -9.01 Q 95.3 -9.01 95.11 -8.74 Q 94.91 -8.46 94.91 -8.14 L 94.91 -8.14 L 94.91 -6.81 Q 94.91 -6.47 95.11 -6.21 Q 95.3 -5.94 95.78 -5.94 L 95.78 -5.94 Z M 119.47 2.12 L 118.42 2.12 L 118.42 -11.26 L 119.47 -11.26 L 119.47 2.12 Z M 139.94 -5.94 L 142.45 -5.94 Q 142.79 -5.94 143.16 -5.8 Q 143.52 -5.66 143.86 -5.42 L 143.86 -5.42 L 143.84 -5.42 Q 144.18 -5.19 144.37 -4.78 Q 144.55 -4.38 144.55 -3.86 L 144.55 -3.86 L 144.55 -2.08 Q 144.55 -1.03 143.84 -0.51 L 143.84 -0.51 Q 143.51 -0.26 143.15 -0.12 Q 142.79 0.01 142.45 0.01 L 142.45 0.01 L 139.62 0.01 Q 139.28 0.01 138.92 -0.12 Q 138.57 -0.26 138.23 -0.51 L 138.23 -0.51 Q 137.53 -1.03 137.53 -2.08 L 137.53 -2.08 L 137.53 -2.94 Q 137.53 -3.55 138.29 -3.55 L 138.29 -3.55 Q 139.07 -3.55 139.07 -2.94 L 139.07 -2.94 L 139.07 -2.18 Q 139.07 -1.85 139.27 -1.57 Q 139.46 -1.3 139.94 -1.3 L 139.94 -1.3 L 142.13 -1.3 Q 142.61 -1.3 142.81 -1.57 Q 143 -1.85 143 -2.18 L 143 -2.18 L 143 -3.76 Q 143 -4.08 142.81 -4.36 Q 142.61 -4.64 142.13 -4.64 L 142.13 -4.64 L 139.62 -4.64 Q 138.94 -4.64 138.23 -5.14 L 138.23 -5.14 Q 137.53 -5.68 137.53 -6.71 L 137.53 -6.71 L 137.53 -8.26 Q 137.53 -8.78 137.71 -9.17 Q 137.89 -9.57 138.23 -9.82 L 138.23 -9.82 L 138.22 -9.82 Q 138.55 -10.04 138.92 -10.18 Q 139.28 -10.32 139.62 -10.32 L 139.62 -10.32 L 142.45 -10.32 Q 142.79 -10.32 143.16 -10.18 Q 143.52 -10.04 143.86 -9.82 L 143.86 -9.82 L 143.84 -9.82 Q 144.18 -9.57 144.37 -9.17 Q 144.55 -8.78 144.55 -8.26 L 144.55 -8.26 L 144.55 -7.49 Q 144.55 -6.88 143.77 -6.88 L 143.77 -6.88 Q 143 -6.88 143 -7.49 L 143 -7.49 L 143 -8.14 Q 143 -8.46 142.81 -8.74 Q 142.61 -9.01 142.13 -9.01 L 142.13 -9.01 L 139.94 -9.01 Q 139.46 -9.01 139.27 -8.74 Q 139.07 -8.46 139.07 -8.14 L 139.07 -8.14 L 139.07 -6.81 Q 139.07 -6.47 139.27 -6.21 Q 139.46 -5.94 139.94 -5.94 L 139.94 -5.94 Z M 153.87 -10.32 L 156.7 -10.32 Q 157.04 -10.32 157.4 -10.18 Q 157.77 -10.04 158.11 -9.82 L 158.11 -9.82 L 158.09 -9.82 Q 158.43 -9.57 158.61 -9.17 Q 158.79 -8.78 158.79 -8.26 L 158.79 -8.26 L 158.79 -2.08 Q 158.79 -1.03 158.09 -0.51 L 158.09 -0.51 Q 157.75 -0.26 157.4 -0.12 Q 157.04 0.01 156.7 0.01 L 156.7 0.01 L 153.87 0.01 Q 153.53 0.01 153.17 -0.12 Q 152.81 -0.26 152.48 -0.51 L 152.48 -0.51 Q 152.14 -0.77 151.96 -1.15 Q 151.77 -1.53 151.77 -2.08 L 151.77 -2.08 L 151.77 -8.26 Q 151.77 -8.78 151.96 -9.17 Q 152.14 -9.57 152.48 -9.82 L 152.48 -9.82 L 152.46 -9.82 Q 152.8 -10.04 153.17 -10.18 Q 153.53 -10.32 153.87 -10.32 L 153.87 -10.32 Z M 154.19 -1.3 L 156.38 -1.3 Q 156.86 -1.3 157.05 -1.57 Q 157.25 -1.85 157.25 -2.18 L 157.25 -2.18 L 157.25 -8.14 Q 157.25 -8.46 157.05 -8.74 Q 156.86 -9.01 156.38 -9.01 L 156.38 -9.01 L 154.19 -9.01 Q 153.71 -9.01 153.52 -8.74 Q 153.32 -8.46 153.32 -8.14 L 153.32 -8.14 L 153.32 -2.18 Q 153.32 -1.85 153.52 -1.57 Q 153.71 -1.3 154.19 -1.3 L 154.19 -1.3 Z M 172.96 -2.94 L 172.96 -2.08 Q 172.96 -1.03 172.26 -0.51 L 172.26 -0.51 Q 171.92 -0.26 171.57 -0.12 Q 171.21 0.01 170.87 0.01 L 170.87 0.01 L 168.04 0.01 Q 167.7 0.01 167.34 -0.12 Q 166.98 -0.26 166.65 -0.51 L 166.65 -0.51 Q 166.31 -0.77 166.13 -1.15 Q 165.94 -1.53 165.94 -2.08 L 165.94 -2.08 L 165.94 -8.26 Q 165.94 -8.78 166.13 -9.17 Q 166.31 -9.57 166.65 -9.82 L 166.65 -9.82 L 166.63 -9.82 Q 166.97 -10.04 167.34 -10.18 Q 167.7 -10.32 168.04 -10.32 L 168.04 -10.32 L 170.87 -10.32 Q 171.21 -10.32 171.57 -10.18 Q 171.94 -10.04 172.28 -9.82 L 172.28 -9.82 L 172.26 -9.82 Q 172.6 -9.57 172.78 -9.17 Q 172.96 -8.78 172.96 -8.26 L 172.96 -8.26 L 172.96 -7.36 Q 172.96 -6.73 172.18 -6.73 L 172.18 -6.73 Q 171.42 -6.73 171.42 -7.36 L 171.42 -7.36 L 171.42 -8.14 Q 171.42 -8.46 171.22 -8.74 Q 171.03 -9.01 170.55 -9.01 L 170.55 -9.01 L 168.36 -9.01 Q 167.88 -9.01 167.69 -8.74 Q 167.49 -8.46 167.49 -8.14 L 167.49 -8.14 L 167.49 -2.18 Q 167.49 -1.85 167.69 -1.57 Q 167.88 -1.3 168.36 -1.3 L 168.36 -1.3 L 170.55 -1.3 Q 171.03 -1.3 171.22 -1.57 Q 171.42 -1.85 171.42 -2.18 L 171.42 -2.18 L 171.42 -2.94 Q 171.42 -3.55 172.18 -3.55 L 172.18 -3.55 Q 172.96 -3.55 172.96 -2.94 L 172.96 -2.94 Z M 181.65 -9.76 L 181.65 -0.55 Q 181.65 0.08 180.87 0.08 L 180.87 0.08 Q 180.1 0.08 180.1 -0.55 L 180.1 -0.55 L 180.1 -9.76 Q 180.1 -10.39 180.87 -10.39 L 180.87 -10.39 Q 181.65 -10.39 181.65 -9.76 L 181.65 -9.76 Z M 195.21 -0.31 L 192.35 -9.05 L 189.5 -0.31 L 189.5 -0.33 Q 189.42 -0.13 189.29 -0.01 Q 189.15 0.12 188.95 0.12 L 188.95 0.12 Q 188.85 0.12 188.75 0.1 Q 188.66 0.08 188.55 0.05 L 188.55 0.05 L 188.56 0.05 Q 187.82 -0.18 188.02 -0.78 L 188.02 -0.78 L 190.98 -9.79 Q 191.05 -10 191.21 -10.14 Q 191.37 -10.28 191.59 -10.31 L 191.59 -10.31 Q 191.81 -10.35 192.02 -10.37 Q 192.23 -10.39 192.35 -10.39 L 192.35 -10.39 Q 192.46 -10.39 192.67 -10.37 Q 192.88 -10.35 193.1 -10.32 L 193.1 -10.32 Q 193.28 -10.3 193.46 -10.13 Q 193.63 -9.96 193.73 -9.79 L 193.73 -9.79 Q 194.45 -7.55 195.2 -5.28 Q 195.95 -3.02 196.68 -0.78 L 196.68 -0.78 Q 196.86 -0.18 196.13 0.05 L 196.13 0.05 Q 196.03 0.08 195.94 0.1 Q 195.86 0.12 195.75 0.12 L 195.75 0.12 Q 195.57 0.12 195.42 -0.01 Q 195.27 -0.13 195.21 -0.33 L 195.21 -0.33 L 195.21 -0.31 Z M 193.32 -3.12 L 193.32 -3.12 Q 193.32 -2.7 193.03 -2.41 Q 192.74 -2.12 192.32 -2.12 L 192.32 -2.12 Q 191.91 -2.12 191.62 -2.41 Q 191.33 -2.7 191.33 -3.12 L 191.33 -3.12 Q 191.33 -3.54 191.62 -3.83 Q 191.91 -4.12 192.32 -4.12 L 192.32 -4.12 Q 192.74 -4.12 193.03 -3.83 Q 193.32 -3.54 193.32 -3.12 Z M 208.92 0.01 L 203.87 0.01 Q 203.38 0.01 203.22 -0.23 Q 203.05 -0.48 203.05 -0.78 L 203.05 -0.78 L 203.05 -9.76 Q 203.05 -10.39 203.8 -10.39 L 203.8 -10.39 Q 204.58 -10.39 204.58 -9.76 L 204.58 -9.76 L 204.58 -1.3 L 208.92 -1.3 Q 209.39 -1.3 209.39 -0.66 L 209.39 -0.66 Q 209.42 0.01 208.92 0.01 L 208.92 0.01 Z M 232.86 -10.39 L 232.86 -10.39 Q 233.27 -10.39 233.77 -10.19 L 233.77 -10.19 Q 234.22 -10.01 234.22 -9.5 L 234.22 -9.5 L 234.22 -0.55 Q 234.22 0.08 233.45 0.08 L 233.45 0.08 Q 232.69 0.08 232.69 -0.55 L 232.69 -0.55 L 232.69 -7.23 L 232.31 -7.27 L 231.79 -5.58 L 230.23 -0.38 Q 230.09 0.08 229.53 0.07 L 229.53 0.07 Q 229.28 0.05 229.1 -0.07 Q 228.92 -0.18 228.85 -0.4 L 228.85 -0.4 L 227.92 -3.43 Q 227.63 -4.33 227.34 -5.26 Q 227.06 -6.19 226.72 -7.32 L 226.72 -7.32 L 226.34 -7.27 L 226.34 -0.55 Q 226.34 0.08 225.58 0.08 L 225.58 0.08 Q 224.81 0.08 224.81 -0.55 L 224.81 -0.55 L 224.81 -9.5 Q 224.81 -10 225.26 -10.19 L 225.26 -10.19 Q 225.74 -10.39 226.19 -10.37 L 226.19 -10.37 Q 226.38 -10.37 226.59 -10.32 Q 226.8 -10.27 226.98 -10.17 Q 227.16 -10.08 227.3 -9.93 Q 227.45 -9.78 227.53 -9.58 L 227.53 -9.58 L 229.57 -2.63 Q 229.79 -3.39 230.03 -4.29 Q 230.28 -5.19 230.54 -6.11 Q 230.8 -7.03 231.06 -7.94 Q 231.31 -8.84 231.53 -9.62 L 231.53 -9.62 Q 231.61 -9.8 231.75 -9.95 Q 231.89 -10.09 232.08 -10.19 Q 232.26 -10.28 232.46 -10.34 Q 232.66 -10.39 232.86 -10.39 Z M 246.84 0.01 L 242.09 0.01 Q 241.6 0.01 241.44 -0.23 Q 241.27 -0.48 241.27 -0.78 L 241.27 -0.78 L 241.27 -9.54 Q 241.27 -9.84 241.44 -10.08 Q 241.6 -10.32 242.09 -10.32 L 242.09 -10.32 L 246.61 -10.32 Q 247.09 -10.32 247.12 -9.67 L 247.12 -9.67 Q 247.14 -9.01 246.61 -9.01 L 246.61 -9.01 L 242.8 -9.01 L 242.8 -1.3 L 246.84 -1.3 Q 247.32 -1.3 247.34 -0.66 L 247.34 -0.66 Q 247.36 0.01 246.84 0.01 L 246.84 0.01 Z M 246.13 -5.37 L 246.13 -5.37 Q 246.13 -4.91 245.81 -4.6 Q 245.49 -4.29 245.04 -4.29 L 245.04 -4.29 Q 244.59 -4.29 244.28 -4.6 Q 243.97 -4.91 243.97 -5.37 L 243.97 -5.37 Q 243.97 -5.82 244.28 -6.14 Q 244.59 -6.45 245.04 -6.45 L 245.04 -6.45 Q 245.49 -6.45 245.81 -6.14 Q 246.13 -5.82 246.13 -5.37 Z M 256.76 -1.3 L 258.53 -1.3 Q 259.01 -1.3 259.21 -1.57 Q 259.4 -1.85 259.4 -2.18 L 259.4 -2.18 L 259.4 -8.14 Q 259.4 -8.46 259.21 -8.74 Q 259.01 -9.01 258.53 -9.01 L 258.53 -9.01 L 255.49 -9.01 L 255.48 -0.53 Q 255.48 -0.25 255.25 -0.08 Q 255.03 0.09 254.71 0.09 L 254.71 0.09 Q 253.94 0.09 253.94 -0.53 L 253.94 -0.53 L 253.94 -9.54 Q 253.94 -10.01 254.18 -10.17 Q 254.42 -10.32 254.76 -10.32 L 254.76 -10.32 L 258.86 -10.32 Q 259.19 -10.32 259.56 -10.18 Q 259.92 -10.04 260.26 -9.82 L 260.26 -9.82 L 260.25 -9.82 Q 260.58 -9.57 260.77 -9.17 Q 260.95 -8.78 260.95 -8.26 L 260.95 -8.26 L 260.95 -2.08 Q 260.95 -1.03 260.25 -0.51 L 260.25 -0.51 Q 259.91 -0.26 259.55 -0.12 Q 259.19 0.01 258.86 0.01 L 258.86 0.01 L 256.67 0.01 Q 256.45 0.01 256.33 -0.17 Q 256.2 -0.35 256.2 -0.65 L 256.2 -0.65 Q 256.2 -1.3 256.76 -1.3 L 256.76 -1.3 Z M 269.71 -9.76 L 269.71 -0.55 Q 269.71 0.08 268.93 0.08 L 268.93 0.08 Q 268.16 0.08 268.16 -0.55 L 268.16 -0.55 L 268.16 -9.76 Q 268.16 -10.39 268.93 -10.39 L 268.93 -10.39 Q 269.71 -10.39 269.71 -9.76 L 269.71 -9.76 Z M 283.27 -0.31 L 280.41 -9.05 L 277.56 -0.31 L 277.56 -0.33 Q 277.48 -0.13 277.35 -0.01 Q 277.21 0.12 277.02 0.12 L 277.02 0.12 Q 276.91 0.12 276.82 0.1 Q 276.72 0.08 276.61 0.05 L 276.61 0.05 L 276.63 0.05 Q 275.89 -0.18 276.08 -0.78 L 276.08 -0.78 L 279.04 -9.79 Q 279.11 -10 279.27 -10.14 Q 279.43 -10.28 279.66 -10.31 L 279.66 -10.31 Q 279.88 -10.35 280.08 -10.37 Q 280.29 -10.39 280.41 -10.39 L 280.41 -10.39 Q 280.53 -10.39 280.73 -10.37 Q 280.94 -10.35 281.16 -10.32 L 281.16 -10.32 Q 281.35 -10.3 281.52 -10.13 Q 281.7 -9.96 281.79 -9.79 L 281.79 -9.79 Q 282.52 -7.55 283.26 -5.28 Q 284.01 -3.02 284.74 -0.78 L 284.74 -0.78 Q 284.92 -0.18 284.19 0.05 L 284.19 0.05 Q 284.09 0.08 284 0.1 Q 283.92 0.12 283.82 0.12 L 283.82 0.12 Q 283.63 0.12 283.48 -0.01 Q 283.33 -0.13 283.27 -0.33 L 283.27 -0.33 L 283.27 -0.31 Z M 281.38 -3.12 L 281.38 -3.12 Q 281.38 -2.7 281.09 -2.41 Q 280.8 -2.12 280.38 -2.12 L 280.38 -2.12 Q 279.97 -2.12 279.68 -2.41 Q 279.4 -2.7 279.4 -3.12 L 279.4 -3.12 Q 279.4 -3.54 279.68 -3.83 Q 279.97 -4.12 280.38 -4.12 L 280.38 -4.12 Q 280.8 -4.12 281.09 -3.83 Q 281.38 -3.54 281.38 -3.12 Z M 302.95 2.12 L 301.9 2.12 L 301.9 -11.26 L 302.95 -11.26 L 302.95 2.12 Z M 327.29 -0.31 L 324.43 -9.05 L 321.58 -0.31 L 321.58 -0.33 Q 321.5 -0.13 321.37 -0.01 Q 321.23 0.12 321.03 0.12 L 321.03 0.12 Q 320.93 0.12 320.83 0.1 Q 320.74 0.08 320.63 0.05 L 320.63 0.05 L 320.64 0.05 Q 319.9 -0.18 320.1 -0.78 L 320.1 -0.78 L 323.06 -9.79 Q 323.13 -10 323.29 -10.14 Q 323.45 -10.28 323.67 -10.31 L 323.67 -10.31 Q 323.89 -10.35 324.1 -10.37 Q 324.31 -10.39 324.43 -10.39 L 324.43 -10.39 Q 324.54 -10.39 324.75 -10.37 Q 324.96 -10.35 325.18 -10.32 L 325.18 -10.32 Q 325.36 -10.3 325.54 -10.13 Q 325.71 -9.96 325.81 -9.79 L 325.81 -9.79 Q 326.53 -7.55 327.28 -5.28 Q 328.03 -3.02 328.76 -0.78 L 328.76 -0.78 Q 328.94 -0.18 328.21 0.05 L 328.21 0.05 Q 328.11 0.08 328.02 0.1 Q 327.94 0.12 327.83 0.12 L 327.83 0.12 Q 327.65 0.12 327.5 -0.01 Q 327.35 -0.13 327.29 -0.33 L 327.29 -0.33 L 327.29 -0.31 Z M 325.4 -3.12 L 325.4 -3.12 Q 325.4 -2.7 325.11 -2.41 Q 324.82 -2.12 324.4 -2.12 L 324.4 -2.12 Q 323.99 -2.12 323.7 -2.41 Q 323.41 -2.7 323.41 -3.12 L 323.41 -3.12 Q 323.41 -3.54 323.7 -3.83 Q 323.99 -4.12 324.4 -4.12 L 324.4 -4.12 Q 324.82 -4.12 325.11 -3.83 Q 325.4 -3.54 325.4 -3.12 Z M 339.74 -3.82 L 337.95 -3.82 Q 337.73 -3.82 337.6 -4 Q 337.48 -4.17 337.48 -4.47 L 337.48 -4.47 Q 337.48 -5.14 338.03 -5.14 L 338.03 -5.14 L 339.4 -5.14 Q 339.88 -5.14 340.09 -5.41 Q 340.29 -5.68 340.29 -6.01 L 340.29 -6.01 L 340.29 -8.14 Q 340.29 -8.46 340.09 -8.74 Q 339.88 -9.01 339.4 -9.01 L 339.4 -9.01 L 336.67 -9.01 L 336.67 -0.52 Q 336.67 0.1 335.89 0.1 L 335.89 0.1 Q 335.14 0.1 335.14 -0.52 L 335.14 -0.52 L 335.14 -9.54 Q 335.14 -10.01 335.37 -10.17 Q 335.61 -10.32 335.95 -10.32 L 335.95 -10.32 L 339.74 -10.32 Q 340.07 -10.32 340.43 -10.18 Q 340.79 -10.04 341.13 -9.82 L 341.13 -9.82 L 341.12 -9.82 Q 341.46 -9.57 341.64 -9.17 Q 341.82 -8.78 341.82 -8.26 L 341.82 -8.26 L 341.82 -5.9 Q 341.82 -4.85 341.12 -4.33 L 341.12 -4.33 Q 340.78 -4.08 340.43 -3.95 Q 340.08 -3.82 339.74 -3.82 L 339.74 -3.82 Z M 353.61 -3.82 L 351.82 -3.82 Q 351.6 -3.82 351.47 -4 Q 351.35 -4.17 351.35 -4.47 L 351.35 -4.47 Q 351.35 -5.14 351.9 -5.14 L 351.9 -5.14 L 353.27 -5.14 Q 353.76 -5.14 353.96 -5.41 Q 354.16 -5.68 354.16 -6.01 L 354.16 -6.01 L 354.16 -8.14 Q 354.16 -8.46 353.96 -8.74 Q 353.76 -9.01 353.27 -9.01 L 353.27 -9.01 L 350.54 -9.01 L 350.54 -0.52 Q 350.54 0.1 349.76 0.1 L 349.76 0.1 Q 349.01 0.1 349.01 -0.52 L 349.01 -0.52 L 349.01 -9.54 Q 349.01 -10.01 349.24 -10.17 Q 349.48 -10.32 349.82 -10.32 L 349.82 -10.32 L 353.61 -10.32 Q 353.94 -10.32 354.3 -10.18 Q 354.67 -10.04 355 -9.82 L 355 -9.82 L 354.99 -9.82 Q 355.33 -9.57 355.51 -9.17 Q 355.69 -8.78 355.69 -8.26 L 355.69 -8.26 L 355.69 -5.9 Q 355.69 -4.85 354.99 -4.33 L 354.99 -4.33 Q 354.65 -4.08 354.3 -3.95 Q 353.95 -3.82 353.61 -3.82 L 353.61 -3.82 Z M 365.29 -5.94 L 367.8 -5.94 Q 368.13 -5.94 368.5 -5.8 Q 368.86 -5.66 369.2 -5.42 L 369.2 -5.42 L 369.19 -5.42 Q 369.52 -5.19 369.71 -4.78 Q 369.89 -4.38 369.89 -3.86 L 369.89 -3.86 L 369.89 -2.08 Q 369.89 -1.03 369.19 -0.51 L 369.19 -0.51 Q 368.85 -0.26 368.49 -0.12 Q 368.13 0.01 367.8 0.01 L 367.8 0.01 L 364.96 0.01 Q 364.62 0.01 364.27 -0.12 Q 363.91 -0.26 363.57 -0.51 L 363.57 -0.51 Q 362.87 -1.03 362.87 -2.08 L 362.87 -2.08 L 362.87 -2.94 Q 362.87 -3.55 363.64 -3.55 L 363.64 -3.55 Q 364.42 -3.55 364.42 -2.94 L 364.42 -2.94 L 364.42 -2.18 Q 364.42 -1.85 364.61 -1.57 Q 364.81 -1.3 365.29 -1.3 L 365.29 -1.3 L 367.47 -1.3 Q 367.95 -1.3 368.15 -1.57 Q 368.34 -1.85 368.34 -2.18 L 368.34 -2.18 L 368.34 -3.76 Q 368.34 -4.08 368.15 -4.36 Q 367.95 -4.64 367.47 -4.64 L 367.47 -4.64 L 364.96 -4.64 Q 364.29 -4.64 363.57 -5.14 L 363.57 -5.14 Q 362.87 -5.68 362.87 -6.71 L 362.87 -6.71 L 362.87 -8.26 Q 362.87 -8.78 363.05 -9.17 Q 363.23 -9.57 363.57 -9.82 L 363.57 -9.82 L 363.56 -9.82 Q 363.9 -10.04 364.26 -10.18 Q 364.62 -10.32 364.96 -10.32 L 364.96 -10.32 L 367.8 -10.32 Q 368.13 -10.32 368.5 -10.18 Q 368.86 -10.04 369.2 -9.82 L 369.2 -9.82 L 369.19 -9.82 Q 369.52 -9.57 369.71 -9.17 Q 369.89 -8.78 369.89 -8.26 L 369.89 -8.26 L 369.89 -7.49 Q 369.89 -6.88 369.11 -6.88 L 369.11 -6.88 Q 368.34 -6.88 368.34 -7.49 L 368.34 -7.49 L 368.34 -8.14 Q 368.34 -8.46 368.15 -8.74 Q 367.95 -9.01 367.47 -9.01 L 367.47 -9.01 L 365.29 -9.01 Q 364.81 -9.01 364.61 -8.74 Q 364.42 -8.46 364.42 -8.14 L 364.42 -8.14 L 364.42 -6.81 Q 364.42 -6.47 364.61 -6.21 Q 364.81 -5.94 365.29 -5.94 L 365.29 -5.94 Z M 388.97 2.12 L 387.92 2.12 L 387.92 -11.26 L 388.97 -11.26 L 388.97 2.12 Z M 400.75 -1.3 L 402.52 -1.3 Q 403 -1.3 403.19 -1.57 Q 403.39 -1.85 403.39 -2.18 L 403.39 -2.18 L 403.39 -8.14 Q 403.39 -8.46 403.19 -8.74 Q 403 -9.01 402.52 -9.01 L 402.52 -9.01 L 399.48 -9.01 L 399.46 -0.53 Q 399.46 -0.25 399.24 -0.08 Q 399.02 0.09 398.7 0.09 L 398.7 0.09 Q 397.93 0.09 397.93 -0.53 L 397.93 -0.53 L 397.93 -9.54 Q 397.93 -10.01 398.17 -10.17 Q 398.41 -10.32 398.75 -10.32 L 398.75 -10.32 L 402.84 -10.32 Q 403.18 -10.32 403.55 -10.18 Q 403.91 -10.04 404.25 -9.82 L 404.25 -9.82 L 404.23 -9.82 Q 404.57 -9.57 404.75 -9.17 Q 404.94 -8.78 404.94 -8.26 L 404.94 -8.26 L 404.94 -2.08 Q 404.94 -1.03 404.23 -0.51 L 404.23 -0.51 Q 403.9 -0.26 403.54 -0.12 Q 403.18 0.01 402.84 0.01 L 402.84 0.01 L 400.66 0.01 Q 400.44 0.01 400.32 -0.17 Q 400.19 -0.35 400.19 -0.65 L 400.19 -0.65 Q 400.19 -1.3 400.75 -1.3 L 400.75 -1.3 Z M 417.69 0.01 L 412.93 0.01 Q 412.45 0.01 412.28 -0.23 Q 412.11 -0.48 412.11 -0.78 L 412.11 -0.78 L 412.11 -9.54 Q 412.11 -9.84 412.28 -10.08 Q 412.45 -10.32 412.93 -10.32 L 412.93 -10.32 L 417.46 -10.32 Q 417.94 -10.32 417.96 -9.67 L 417.96 -9.67 Q 417.99 -9.01 417.46 -9.01 L 417.46 -9.01 L 413.65 -9.01 L 413.65 -1.3 L 417.69 -1.3 Q 418.17 -1.3 418.18 -0.66 L 418.18 -0.66 Q 418.21 0.01 417.69 0.01 L 417.69 0.01 Z M 416.97 -5.37 L 416.97 -5.37 Q 416.97 -4.91 416.66 -4.6 Q 416.34 -4.29 415.88 -4.29 L 415.88 -4.29 Q 415.44 -4.29 415.13 -4.6 Q 414.82 -4.91 414.82 -5.37 L 414.82 -5.37 Q 414.82 -5.82 415.13 -6.14 Q 415.44 -6.45 415.88 -6.45 L 415.88 -6.45 Q 416.34 -6.45 416.66 -6.14 Q 416.97 -5.82 416.97 -5.37 Z M 427.21 -5.94 L 429.71 -5.94 Q 430.05 -5.94 430.42 -5.8 Q 430.78 -5.66 431.12 -5.42 L 431.12 -5.42 L 431.11 -5.42 Q 431.44 -5.19 431.63 -4.78 Q 431.81 -4.38 431.81 -3.86 L 431.81 -3.86 L 431.81 -2.08 Q 431.81 -1.03 431.11 -0.51 L 431.11 -0.51 Q 430.77 -0.26 430.41 -0.12 Q 430.05 0.01 429.71 0.01 L 429.71 0.01 L 426.88 0.01 Q 426.54 0.01 426.19 -0.12 Q 425.83 -0.26 425.49 -0.51 L 425.49 -0.51 Q 424.79 -1.03 424.79 -2.08 L 424.79 -2.08 L 424.79 -2.94 Q 424.79 -3.55 425.55 -3.55 L 425.55 -3.55 Q 426.33 -3.55 426.33 -2.94 L 426.33 -2.94 L 426.33 -2.18 Q 426.33 -1.85 426.53 -1.57 Q 426.72 -1.3 427.21 -1.3 L 427.21 -1.3 L 429.39 -1.3 Q 429.87 -1.3 430.07 -1.57 Q 430.26 -1.85 430.26 -2.18 L 430.26 -2.18 L 430.26 -3.76 Q 430.26 -4.08 430.07 -4.36 Q 429.87 -4.64 429.39 -4.64 L 429.39 -4.64 L 426.88 -4.64 Q 426.2 -4.64 425.49 -5.14 L 425.49 -5.14 Q 424.79 -5.68 424.79 -6.71 L 424.79 -6.71 L 424.79 -8.26 Q 424.79 -8.78 424.97 -9.17 Q 425.15 -9.57 425.49 -9.82 L 425.49 -9.82 L 425.48 -9.82 Q 425.81 -10.04 426.18 -10.18 Q 426.54 -10.32 426.88 -10.32 L 426.88 -10.32 L 429.71 -10.32 Q 430.05 -10.32 430.42 -10.18 Q 430.78 -10.04 431.12 -9.82 L 431.12 -9.82 L 431.11 -9.82 Q 431.44 -9.57 431.63 -9.17 Q 431.81 -8.78 431.81 -8.26 L 431.81 -8.26 L 431.81 -7.49 Q 431.81 -6.88 431.03 -6.88 L 431.03 -6.88 Q 430.26 -6.88 430.26 -7.49 L 430.26 -7.49 L 430.26 -8.14 Q 430.26 -8.46 430.07 -8.74 Q 429.87 -9.01 429.39 -9.01 L 429.39 -9.01 L 427.21 -9.01 Q 426.72 -9.01 426.53 -8.74 Q 426.33 -8.46 426.33 -8.14 L 426.33 -8.14 L 426.33 -6.81 Q 426.33 -6.47 426.53 -6.21 Q 426.72 -5.94 427.21 -5.94 L 427.21 -5.94 Z M 440.58 -5.51 L 444.55 -10.17 Q 444.74 -10.4 444.99 -10.4 L 444.99 -10.4 Q 445.26 -10.4 445.55 -10.15 L 445.55 -10.15 Q 445.69 -10.01 445.79 -9.87 Q 445.89 -9.72 445.89 -9.58 L 445.89 -9.58 Q 445.89 -9.35 445.72 -9.18 L 445.72 -9.18 L 443.98 -7.15 L 440.58 -3.16 L 440.58 -0.55 Q 440.58 0.08 439.8 0.08 L 439.8 0.08 Q 439.04 0.08 439.04 -0.55 L 439.04 -0.55 L 439.04 -9.76 Q 439.04 -10.39 439.8 -10.39 L 439.8 -10.39 Q 440.58 -10.39 440.58 -9.76 L 440.58 -9.76 L 440.58 -5.51 Z M 445.17 -0.39 L 442.7 -3.99 Q 442.57 -4.17 442.57 -4.43 L 442.57 -4.43 Q 442.57 -4.82 442.9 -5.06 L 442.9 -5.06 L 442.88 -5.06 Q 443.14 -5.24 443.4 -5.24 L 443.4 -5.24 Q 443.65 -5.24 443.82 -4.95 L 443.82 -4.95 L 446.33 -1.29 L 446.32 -1.3 Q 446.43 -1.12 446.43 -0.91 L 446.43 -0.91 Q 446.43 -0.57 446.09 -0.31 L 446.09 -0.31 L 446.11 -0.31 Q 445.96 -0.22 445.83 -0.17 Q 445.7 -0.12 445.6 -0.12 L 445.6 -0.12 Q 445.5 -0.12 445.39 -0.2 Q 445.28 -0.27 445.17 -0.39 L 445.17 -0.39 Z M 456.18 -9.01 L 456.18 -0.52 Q 456.18 0.1 455.4 0.1 L 455.4 0.1 Q 454.64 0.1 454.64 -0.52 L 454.64 -0.52 L 454.64 -9.01 L 452.36 -9.01 Q 451.89 -9.01 451.87 -9.67 L 451.87 -9.67 Q 451.87 -10.32 452.36 -10.32 L 452.36 -10.32 L 458.46 -10.32 Q 458.95 -10.32 458.93 -9.67 L 458.93 -9.67 Q 458.93 -9.01 458.46 -9.01 L 458.46 -9.01 L 456.18 -9.01 Z M 467.36 -10.32 L 470.2 -10.32 Q 470.53 -10.32 470.9 -10.18 Q 471.26 -10.04 471.6 -9.82 L 471.6 -9.82 L 471.59 -9.82 Q 471.93 -9.57 472.11 -9.17 Q 472.29 -8.78 472.29 -8.26 L 472.29 -8.26 L 472.29 -2.08 Q 472.29 -1.03 471.59 -0.51 L 471.59 -0.51 Q 471.25 -0.26 470.89 -0.12 Q 470.53 0.01 470.2 0.01 L 470.2 0.01 L 467.36 0.01 Q 467.02 0.01 466.67 -0.12 Q 466.31 -0.26 465.97 -0.51 L 465.97 -0.51 Q 465.63 -0.77 465.45 -1.15 Q 465.27 -1.53 465.27 -2.08 L 465.27 -2.08 L 465.27 -8.26 Q 465.27 -8.78 465.45 -9.17 Q 465.63 -9.57 465.97 -9.82 L 465.97 -9.82 L 465.96 -9.82 Q 466.3 -10.04 466.66 -10.18 Q 467.02 -10.32 467.36 -10.32 L 467.36 -10.32 Z M 467.69 -1.3 L 469.87 -1.3 Q 470.35 -1.3 470.55 -1.57 Q 470.74 -1.85 470.74 -2.18 L 470.74 -2.18 L 470.74 -8.14 Q 470.74 -8.46 470.55 -8.74 Q 470.35 -9.01 469.87 -9.01 L 469.87 -9.01 L 467.69 -9.01 Q 467.21 -9.01 467.01 -8.74 Q 466.82 -8.46 466.82 -8.14 L 466.82 -8.14 L 466.82 -2.18 Q 466.82 -1.85 467.01 -1.57 Q 467.21 -1.3 467.69 -1.3 L 467.69 -1.3 Z M 484.07 -3.82 L 482.27 -3.82 Q 482.05 -3.82 481.93 -4 Q 481.81 -4.17 481.81 -4.47 L 481.81 -4.47 Q 481.81 -5.14 482.35 -5.14 L 482.35 -5.14 L 483.73 -5.14 Q 484.21 -5.14 484.41 -5.41 Q 484.61 -5.68 484.61 -6.01 L 484.61 -6.01 L 484.61 -8.14 Q 484.61 -8.46 484.41 -8.74 Q 484.21 -9.01 483.73 -9.01 L 483.73 -9.01 L 481 -9.01 L 481 -0.52 Q 481 0.1 480.22 0.1 L 480.22 0.1 Q 479.47 0.1 479.47 -0.52 L 479.47 -0.52 L 479.47 -9.54 Q 479.47 -10.01 479.7 -10.17 Q 479.93 -10.32 480.27 -10.32 L 480.27 -10.32 L 484.07 -10.32 Q 484.39 -10.32 484.76 -10.18 Q 485.12 -10.04 485.46 -9.82 L 485.46 -9.82 L 485.45 -9.82 Q 485.78 -9.57 485.97 -9.17 Q 486.15 -8.78 486.15 -8.26 L 486.15 -8.26 L 486.15 -5.9 Q 486.15 -4.85 485.45 -4.33 L 485.45 -4.33 Q 485.11 -4.08 484.76 -3.95 Q 484.41 -3.82 484.07 -3.82 L 484.07 -3.82 Z M 504.84 -5.94 L 507.35 -5.94 Q 507.69 -5.94 508.05 -5.8 Q 508.42 -5.66 508.75 -5.42 L 508.75 -5.42 L 508.74 -5.42 Q 509.08 -5.19 509.26 -4.78 Q 509.44 -4.38 509.44 -3.86 L 509.44 -3.86 L 509.44 -2.08 Q 509.44 -1.03 508.74 -0.51 L 508.74 -0.51 Q 508.4 -0.26 508.05 -0.12 Q 507.69 0.01 507.35 0.01 L 507.35 0.01 L 504.52 0.01 Q 504.18 0.01 503.82 -0.12 Q 503.46 -0.26 503.13 -0.51 L 503.13 -0.51 Q 502.42 -1.03 502.42 -2.08 L 502.42 -2.08 L 502.42 -2.94 Q 502.42 -3.55 503.19 -3.55 L 503.19 -3.55 Q 503.97 -3.55 503.97 -2.94 L 503.97 -2.94 L 503.97 -2.18 Q 503.97 -1.85 504.17 -1.57 Q 504.36 -1.3 504.84 -1.3 L 504.84 -1.3 L 507.03 -1.3 Q 507.51 -1.3 507.7 -1.57 Q 507.9 -1.85 507.9 -2.18 L 507.9 -2.18 L 507.9 -3.76 Q 507.9 -4.08 507.7 -4.36 Q 507.51 -4.64 507.03 -4.64 L 507.03 -4.64 L 504.52 -4.64 Q 503.84 -4.64 503.13 -5.14 L 503.13 -5.14 Q 502.42 -5.68 502.42 -6.71 L 502.42 -6.71 L 502.42 -8.26 Q 502.42 -8.78 502.61 -9.17 Q 502.79 -9.57 503.13 -9.82 L 503.13 -9.82 L 503.11 -9.82 Q 503.45 -10.04 503.81 -10.18 Q 504.18 -10.32 504.52 -10.32 L 504.52 -10.32 L 507.35 -10.32 Q 507.69 -10.32 508.05 -10.18 Q 508.42 -10.04 508.75 -9.82 L 508.75 -9.82 L 508.74 -9.82 Q 509.08 -9.57 509.26 -9.17 Q 509.44 -8.78 509.44 -8.26 L 509.44 -8.26 L 509.44 -7.49 Q 509.44 -6.88 508.66 -6.88 L 508.66 -6.88 Q 507.9 -6.88 507.9 -7.49 L 507.9 -7.49 L 507.9 -8.14 Q 507.9 -8.46 507.7 -8.74 Q 507.51 -9.01 507.03 -9.01 L 507.03 -9.01 L 504.84 -9.01 Q 504.36 -9.01 504.17 -8.74 Q 503.97 -8.46 503.97 -8.14 L 503.97 -8.14 L 503.97 -6.81 Q 503.97 -6.47 504.17 -6.21 Q 504.36 -5.94 504.84 -5.94 L 504.84 -5.94 Z M 518.76 -10.32 L 521.6 -10.32 Q 521.94 -10.32 522.3 -10.18 Q 522.66 -10.04 523 -9.82 L 523 -9.82 L 522.99 -9.82 Q 523.33 -9.57 523.51 -9.17 Q 523.69 -8.78 523.69 -8.26 L 523.69 -8.26 L 523.69 -2.08 Q 523.69 -1.03 522.99 -0.51 L 522.99 -0.51 Q 522.65 -0.26 522.29 -0.12 Q 521.94 0.01 521.6 0.01 L 521.6 0.01 L 518.76 0.01 Q 518.43 0.01 518.07 -0.12 Q 517.71 -0.26 517.37 -0.51 L 517.37 -0.51 Q 517.04 -0.77 516.85 -1.15 Q 516.67 -1.53 516.67 -2.08 L 516.67 -2.08 L 516.67 -8.26 Q 516.67 -8.78 516.85 -9.17 Q 517.04 -9.57 517.37 -9.82 L 517.37 -9.82 L 517.36 -9.82 Q 517.7 -10.04 518.06 -10.18 Q 518.43 -10.32 518.76 -10.32 L 518.76 -10.32 Z M 519.09 -1.3 L 521.27 -1.3 Q 521.75 -1.3 521.95 -1.57 Q 522.14 -1.85 522.14 -2.18 L 522.14 -2.18 L 522.14 -8.14 Q 522.14 -8.46 521.95 -8.74 Q 521.75 -9.01 521.27 -9.01 L 521.27 -9.01 L 519.09 -9.01 Q 518.61 -9.01 518.41 -8.74 Q 518.22 -8.46 518.22 -8.14 L 518.22 -8.14 L 518.22 -2.18 Q 518.22 -1.85 518.41 -1.57 Q 518.61 -1.3 519.09 -1.3 L 519.09 -1.3 Z M 532.4 -9.01 L 532.4 -0.55 Q 532.4 0.08 531.63 0.08 L 531.63 0.08 Q 530.87 0.08 530.87 -0.55 L 530.87 -0.55 L 530.87 -9.54 Q 530.87 -9.84 531.04 -10.08 Q 531.21 -10.32 531.69 -10.32 L 531.69 -10.32 L 536.11 -10.32 Q 536.57 -10.32 536.6 -9.67 L 536.6 -9.67 Q 536.63 -9.01 536.11 -9.01 L 536.11 -9.01 L 532.4 -9.01 Z M 535.73 -5.37 L 535.73 -5.37 Q 535.73 -5.15 535.65 -4.95 Q 535.56 -4.75 535.41 -4.6 Q 535.26 -4.46 535.07 -4.37 Q 534.87 -4.29 534.64 -4.29 L 534.64 -4.29 Q 534.2 -4.29 533.88 -4.6 Q 533.57 -4.91 533.57 -5.37 L 533.57 -5.37 Q 533.57 -5.82 533.88 -6.14 Q 534.2 -6.45 534.64 -6.45 L 534.64 -6.45 Q 534.87 -6.45 535.07 -6.36 Q 535.26 -6.28 535.41 -6.13 Q 535.56 -5.98 535.65 -5.79 Q 535.73 -5.59 535.73 -5.37 Z M 546.69 -9.01 L 546.69 -0.52 Q 546.69 0.1 545.91 0.1 L 545.91 0.1 Q 545.14 0.1 545.14 -0.52 L 545.14 -0.52 L 545.14 -9.01 L 542.87 -9.01 Q 542.4 -9.01 542.37 -9.67 L 542.37 -9.67 Q 542.37 -10.32 542.87 -10.32 L 542.87 -10.32 L 548.96 -10.32 Q 549.46 -10.32 549.43 -9.67 L 549.43 -9.67 Q 549.43 -9.01 548.96 -9.01 L 548.96 -9.01 L 546.69 -9.01 Z M 563.37 -2.93 L 565.04 -9.89 L 565.03 -9.88 Q 565.11 -10.17 565.34 -10.3 Q 565.56 -10.43 565.94 -10.36 L 565.94 -10.36 Q 566.32 -10.3 566.48 -10.13 Q 566.64 -9.96 566.55 -9.66 L 566.55 -9.66 L 564.21 -0.34 L 564.21 -0.35 Q 564.15 -0.13 563.92 -0.01 Q 563.69 0.1 563.45 0.1 L 563.45 0.1 Q 563.16 0.1 562.91 0.02 Q 562.65 -0.07 562.59 -0.33 L 562.59 -0.33 L 562.6 -0.31 L 561 -6.66 L 560.65 -6.66 L 559.06 -0.33 Q 559 -0.1 558.74 0 Q 558.48 0.1 558.21 0.1 L 558.21 0.1 Q 557.87 0.1 557.67 0.01 Q 557.47 -0.09 557.4 -0.34 L 557.4 -0.34 L 557.41 -0.33 L 555.07 -9.66 Q 555.01 -9.92 555.19 -10.11 Q 555.37 -10.3 555.71 -10.36 L 555.71 -10.36 Q 556.44 -10.48 556.59 -9.88 L 556.59 -9.88 L 556.58 -9.89 L 557.17 -7.54 Q 557.28 -7.07 557.4 -6.58 Q 557.52 -6.1 557.66 -5.54 Q 557.8 -4.99 557.97 -4.34 Q 558.14 -3.69 558.35 -2.89 L 558.35 -2.89 L 560.01 -9.91 Q 560.08 -10.19 560.31 -10.28 Q 560.55 -10.37 560.83 -10.37 L 560.83 -10.37 Q 561.09 -10.37 561.34 -10.28 Q 561.59 -10.18 561.65 -9.88 L 561.65 -9.88 L 563.37 -2.93 Z M 579.21 -0.31 L 576.35 -9.05 L 573.51 -0.31 L 573.51 -0.33 Q 573.43 -0.13 573.29 -0.01 Q 573.16 0.12 572.96 0.12 L 572.96 0.12 Q 572.86 0.12 572.76 0.1 Q 572.66 0.08 572.56 0.05 L 572.56 0.05 L 572.57 0.05 Q 571.83 -0.18 572.03 -0.78 L 572.03 -0.78 L 574.99 -9.79 Q 575.05 -10 575.22 -10.14 Q 575.38 -10.28 575.6 -10.31 L 575.6 -10.31 Q 575.82 -10.35 576.03 -10.37 Q 576.24 -10.39 576.35 -10.39 L 576.35 -10.39 Q 576.47 -10.39 576.68 -10.37 Q 576.89 -10.35 577.11 -10.32 L 577.11 -10.32 Q 577.29 -10.3 577.47 -10.13 Q 577.64 -9.96 577.73 -9.79 L 577.73 -9.79 Q 578.46 -7.55 579.21 -5.28 Q 579.96 -3.02 580.68 -0.78 L 580.68 -0.78 Q 580.87 -0.18 580.14 0.05 L 580.14 0.05 Q 580.03 0.08 579.95 0.1 Q 579.86 0.12 579.76 0.12 L 579.76 0.12 Q 579.58 0.12 579.43 -0.01 Q 579.28 -0.13 579.21 -0.33 L 579.21 -0.33 L 579.21 -0.31 Z M 577.33 -3.12 L 577.33 -3.12 Q 577.33 -2.7 577.04 -2.41 Q 576.74 -2.12 576.33 -2.12 L 576.33 -2.12 Q 575.91 -2.12 575.63 -2.41 Q 575.34 -2.7 575.34 -3.12 L 575.34 -3.12 Q 575.34 -3.54 575.63 -3.83 Q 575.91 -4.12 576.33 -4.12 L 576.33 -4.12 Q 576.74 -4.12 577.04 -3.83 Q 577.33 -3.54 577.33 -3.12 Z M 593.19 -0.16 L 590.73 -4.28 L 589.73 -4.28 Q 589.51 -4.28 589.39 -4.45 Q 589.26 -4.63 589.26 -4.93 L 589.26 -4.93 Q 589.26 -5.59 589.81 -5.59 L 589.81 -5.59 L 591.33 -5.59 Q 591.81 -5.59 592.01 -5.86 Q 592.2 -6.14 592.2 -6.46 L 592.2 -6.46 L 592.2 -8.14 Q 592.2 -8.46 592.01 -8.74 Q 591.81 -9.01 591.33 -9.01 L 591.33 -9.01 L 588.59 -9.01 L 588.59 -0.53 Q 588.59 0.09 587.82 0.09 L 587.82 0.09 Q 587.05 0.09 587.05 -0.53 L 587.05 -0.53 L 587.05 -9.54 Q 587.05 -10.01 587.29 -10.17 Q 587.53 -10.32 587.87 -10.32 L 587.87 -10.32 L 591.66 -10.32 Q 591.99 -10.32 592.36 -10.18 Q 592.72 -10.04 593.06 -9.82 L 593.06 -9.82 L 593.05 -9.82 Q 593.38 -9.57 593.57 -9.17 Q 593.75 -8.78 593.75 -8.26 L 593.75 -8.26 L 593.75 -6.36 Q 593.75 -5.3 593.05 -4.78 L 593.05 -4.78 Q 592.9 -4.68 592.74 -4.59 Q 592.58 -4.5 592.41 -4.41 L 592.41 -4.41 L 594.49 -0.98 Q 594.53 -0.91 594.57 -0.81 Q 594.61 -0.7 594.61 -0.64 L 594.61 -0.64 Q 594.61 -0.33 594.16 -0.04 L 594.16 -0.04 L 594.16 -0.05 Q 593.87 0.13 593.66 0.13 L 593.66 0.13 Q 593.36 0.13 593.18 -0.17 L 593.18 -0.17 L 593.19 -0.16 Z M 606.61 0.01 L 601.85 0.01 Q 601.37 0.01 601.2 -0.23 Q 601.03 -0.48 601.03 -0.78 L 601.03 -0.78 L 601.03 -9.54 Q 601.03 -9.84 601.2 -10.08 Q 601.37 -10.32 601.85 -10.32 L 601.85 -10.32 L 606.37 -10.32 Q 606.85 -10.32 606.88 -9.67 L 606.88 -9.67 Q 606.9 -9.01 606.37 -9.01 L 606.37 -9.01 L 602.56 -9.01 L 602.56 -1.3 L 606.61 -1.3 Q 607.09 -1.3 607.1 -0.66 L 607.1 -0.66 Q 607.13 0.01 606.61 0.01 L 606.61 0.01 Z M 605.89 -5.37 L 605.89 -5.37 Q 605.89 -4.91 605.57 -4.6 Q 605.25 -4.29 604.8 -4.29 L 604.8 -4.29 Q 604.36 -4.29 604.04 -4.6 Q 603.73 -4.91 603.73 -5.37 L 603.73 -5.37 Q 603.73 -5.82 604.04 -6.14 Q 604.36 -6.45 604.8 -6.45 L 604.8 -6.45 Q 605.25 -6.45 605.57 -6.14 Q 605.89 -5.82 605.89 -5.37 Z M 616.45 2.12 L 615.39 2.12 L 615.39 -11.26 L 616.45 -11.26 L 616.45 2.12 Z" stroke-linecap="round" />
</g>
		<g transform="matrix(1 0 0 1 -3.6089123535156773 8.884949999999947)" id="tagline-927a368f-8c48-4715-88f0-86fe919c46a3-logo-path-1"  >
<path style="stroke: rgb(49,163,226); stroke-width: 0.5533149386812298; stroke-dasharray: none; stroke-linecap: butt; stroke-dashoffset: 0; stroke-linejoin: miter; stroke-miterlimit: 4; fill: rgb(49,163,226); fill-rule: nonzero; opacity: 1;"  paint-order="stroke"  transform=" translate(-118.50873599002789, 5.199999999999999)" d="M 7.32 -0.31 L 4.46 -9.05 L 1.61 -0.31 L 1.61 -0.33 Q 1.53 -0.13 1.4 -0.01 Q 1.26 0.12 1.07 0.12 L 1.07 0.12 Q 0.96 0.12 0.86 0.1 Q 0.77 0.08 0.66 0.05 L 0.66 0.05 L 0.68 0.05 Q -0.07 -0.18 0.13 -0.78 L 0.13 -0.78 L 3.09 -9.79 Q 3.16 -10 3.32 -10.14 Q 3.48 -10.28 3.71 -10.31 L 3.71 -10.31 Q 3.93 -10.35 4.13 -10.37 Q 4.34 -10.39 4.46 -10.39 L 4.46 -10.39 Q 4.58 -10.39 4.78 -10.37 Q 4.99 -10.35 5.21 -10.32 L 5.21 -10.32 Q 5.4 -10.3 5.57 -10.13 Q 5.75 -9.96 5.84 -9.79 L 5.84 -9.79 Q 6.57 -7.55 7.31 -5.28 Q 8.06 -3.02 8.79 -0.78 L 8.79 -0.78 Q 8.97 -0.18 8.24 0.05 L 8.24 0.05 Q 8.14 0.08 8.05 0.1 Q 7.97 0.12 7.87 0.12 L 7.87 0.12 Q 7.68 0.12 7.53 -0.01 Q 7.38 -0.13 7.32 -0.33 L 7.32 -0.33 L 7.32 -0.31 Z M 5.43 -3.12 L 5.43 -3.12 Q 5.43 -2.7 5.14 -2.41 Q 4.85 -2.12 4.43 -2.12 L 4.43 -2.12 Q 4.02 -2.12 3.73 -2.41 Q 3.45 -2.7 3.45 -3.12 L 3.45 -3.12 Q 3.45 -3.54 3.73 -3.83 Q 4.02 -4.12 4.43 -4.12 L 4.43 -4.12 Q 4.85 -4.12 5.14 -3.83 Q 5.43 -3.54 5.43 -3.12 Z M 18.63 -9.01 L 18.63 -0.52 Q 18.63 0.1 17.85 0.1 L 17.85 0.1 Q 17.08 0.1 17.08 -0.52 L 17.08 -0.52 L 17.08 -9.01 L 14.81 -9.01 Q 14.34 -9.01 14.31 -9.67 L 14.31 -9.67 Q 14.31 -10.32 14.81 -10.32 L 14.81 -10.32 L 20.9 -10.32 Q 21.4 -10.32 21.37 -9.67 L 21.37 -9.67 Q 21.37 -9.01 20.9 -9.01 L 20.9 -9.01 L 18.63 -9.01 Z M 40.63 -3.94 L 40.63 -0.52 Q 40.63 0.1 39.86 0.1 L 39.86 0.1 Q 39.09 0.1 39.09 -0.52 L 39.09 -0.52 L 39.09 -3.98 L 36.18 -9.52 Q 36.1 -9.69 36.1 -9.87 L 36.1 -9.87 Q 36.1 -10.24 36.54 -10.43 L 36.54 -10.43 L 36.53 -10.43 Q 36.82 -10.53 36.99 -10.53 L 36.99 -10.53 Q 37.32 -10.53 37.51 -10.19 L 37.51 -10.19 L 39.87 -5.75 Q 40.13 -6.24 40.43 -6.81 Q 40.73 -7.37 41.03 -7.96 Q 41.34 -8.54 41.64 -9.11 Q 41.94 -9.69 42.21 -10.19 L 42.21 -10.19 Q 42.32 -10.35 42.44 -10.44 Q 42.56 -10.53 42.74 -10.53 L 42.74 -10.53 Q 42.93 -10.53 43.17 -10.43 L 43.17 -10.43 L 43.16 -10.43 Q 43.62 -10.23 43.62 -9.85 L 43.62 -9.85 Q 43.62 -9.78 43.6 -9.69 Q 43.59 -9.61 43.54 -9.52 L 43.54 -9.52 Q 43.42 -9.28 43.24 -8.94 Q 43.07 -8.61 42.75 -8 Q 42.43 -7.4 41.93 -6.43 Q 41.42 -5.46 40.63 -3.94 L 40.63 -3.94 Z M 52.2 -10.32 L 55.03 -10.32 Q 55.37 -10.32 55.73 -10.18 Q 56.1 -10.04 56.43 -9.82 L 56.43 -9.82 L 56.42 -9.82 Q 56.76 -9.57 56.94 -9.17 Q 57.12 -8.78 57.12 -8.26 L 57.12 -8.26 L 57.12 -2.08 Q 57.12 -1.03 56.42 -0.51 L 56.42 -0.51 Q 56.08 -0.26 55.72 -0.12 Q 55.37 0.01 55.03 0.01 L 55.03 0.01 L 52.2 0.01 Q 51.86 0.01 51.5 -0.12 Q 51.14 -0.26 50.8 -0.51 L 50.8 -0.51 Q 50.47 -0.77 50.28 -1.15 Q 50.1 -1.53 50.1 -2.08 L 50.1 -2.08 L 50.1 -8.26 Q 50.1 -8.78 50.28 -9.17 Q 50.47 -9.57 50.8 -9.82 L 50.8 -9.82 L 50.79 -9.82 Q 51.13 -10.04 51.49 -10.18 Q 51.86 -10.32 52.2 -10.32 L 52.2 -10.32 Z M 52.52 -1.3 L 54.7 -1.3 Q 55.19 -1.3 55.38 -1.57 Q 55.58 -1.85 55.58 -2.18 L 55.58 -2.18 L 55.58 -8.14 Q 55.58 -8.46 55.38 -8.74 Q 55.19 -9.01 54.7 -9.01 L 54.7 -9.01 L 52.52 -9.01 Q 52.04 -9.01 51.84 -8.74 Q 51.65 -8.46 51.65 -8.14 L 51.65 -8.14 L 51.65 -2.18 Q 51.65 -1.85 51.84 -1.57 Q 52.04 -1.3 52.52 -1.3 L 52.52 -1.3 Z M 71.29 -9.76 L 71.29 -2.08 Q 71.29 -1.03 70.59 -0.51 L 70.59 -0.51 Q 70.25 -0.26 69.89 -0.12 Q 69.54 0.01 69.2 0.01 L 69.2 0.01 L 66.37 0.01 Q 66.03 0.01 65.67 -0.12 Q 65.31 -0.26 64.97 -0.51 L 64.97 -0.51 Q 64.64 -0.77 64.45 -1.15 Q 64.27 -1.53 64.27 -2.08 L 64.27 -2.08 L 64.27 -9.76 Q 64.27 -10.39 65.04 -10.39 L 65.04 -10.39 Q 65.82 -10.39 65.82 -9.76 L 65.82 -9.76 L 65.82 -2.18 Q 65.82 -1.85 66.01 -1.57 Q 66.21 -1.3 66.69 -1.3 L 66.69 -1.3 L 68.87 -1.3 Q 69.36 -1.3 69.55 -1.57 Q 69.75 -1.85 69.75 -2.18 L 69.75 -2.18 L 69.75 -9.76 Q 69.75 -10.39 70.51 -10.39 L 70.51 -10.39 Q 71.29 -10.39 71.29 -9.76 L 71.29 -9.76 Z M 84.62 -0.16 L 82.16 -4.28 L 81.16 -4.28 Q 80.94 -4.28 80.81 -4.45 Q 80.69 -4.63 80.69 -4.93 L 80.69 -4.93 Q 80.69 -5.59 81.24 -5.59 L 81.24 -5.59 L 82.76 -5.59 Q 83.24 -5.59 83.43 -5.86 Q 83.63 -6.14 83.63 -6.46 L 83.63 -6.46 L 83.63 -8.14 Q 83.63 -8.46 83.43 -8.74 Q 83.24 -9.01 82.76 -9.01 L 82.76 -9.01 L 80.02 -9.01 L 80.02 -0.53 Q 80.02 0.09 79.25 0.09 L 79.25 0.09 Q 78.48 0.09 78.48 -0.53 L 78.48 -0.53 L 78.48 -9.54 Q 78.48 -10.01 78.72 -10.17 Q 78.96 -10.32 79.3 -10.32 L 79.3 -10.32 L 83.08 -10.32 Q 83.42 -10.32 83.79 -10.18 Q 84.15 -10.04 84.49 -9.82 L 84.49 -9.82 L 84.47 -9.82 Q 84.81 -9.57 84.99 -9.17 Q 85.18 -8.78 85.18 -8.26 L 85.18 -8.26 L 85.18 -6.36 Q 85.18 -5.3 84.47 -4.78 L 84.47 -4.78 Q 84.33 -4.68 84.17 -4.59 Q 84.01 -4.5 83.84 -4.41 L 83.84 -4.41 L 85.92 -0.98 Q 85.96 -0.91 86 -0.81 Q 86.03 -0.7 86.03 -0.64 L 86.03 -0.64 Q 86.03 -0.33 85.59 -0.04 L 85.59 -0.04 L 85.59 -0.05 Q 85.29 0.13 85.09 0.13 L 85.09 0.13 Q 84.79 0.13 84.6 -0.17 L 84.6 -0.17 L 84.62 -0.16 Z M 108.55 -2.94 L 108.55 -2.08 Q 108.55 -1.03 107.85 -0.51 L 107.85 -0.51 Q 107.51 -0.26 107.15 -0.12 Q 106.8 0.01 106.46 0.01 L 106.46 0.01 L 103.62 0.01 Q 103.29 0.01 102.93 -0.12 Q 102.57 -0.26 102.23 -0.51 L 102.23 -0.51 Q 101.89 -0.77 101.71 -1.15 Q 101.53 -1.53 101.53 -2.08 L 101.53 -2.08 L 101.53 -8.26 Q 101.53 -8.78 101.71 -9.17 Q 101.89 -9.57 102.23 -9.82 L 102.23 -9.82 L 102.22 -9.82 Q 102.56 -10.04 102.92 -10.18 Q 103.29 -10.32 103.62 -10.32 L 103.62 -10.32 L 106.46 -10.32 Q 106.8 -10.32 107.16 -10.18 Q 107.52 -10.04 107.86 -9.82 L 107.86 -9.82 L 107.85 -9.82 Q 108.19 -9.57 108.37 -9.17 Q 108.55 -8.78 108.55 -8.26 L 108.55 -8.26 L 108.55 -7.36 Q 108.55 -6.73 107.77 -6.73 L 107.77 -6.73 Q 107 -6.73 107 -7.36 L 107 -7.36 L 107 -8.14 Q 107 -8.46 106.81 -8.74 Q 106.61 -9.01 106.13 -9.01 L 106.13 -9.01 L 103.95 -9.01 Q 103.47 -9.01 103.27 -8.74 Q 103.08 -8.46 103.08 -8.14 L 103.08 -8.14 L 103.08 -2.18 Q 103.08 -1.85 103.27 -1.57 Q 103.47 -1.3 103.95 -1.3 L 103.95 -1.3 L 106.13 -1.3 Q 106.61 -1.3 106.81 -1.57 Q 107 -1.85 107 -2.18 L 107 -2.18 L 107 -2.94 Q 107 -3.55 107.77 -3.55 L 107.77 -3.55 Q 108.55 -3.55 108.55 -2.94 L 108.55 -2.94 Z M 117.72 -10.32 L 120.55 -10.32 Q 120.89 -10.32 121.25 -10.18 Q 121.62 -10.04 121.95 -9.82 L 121.95 -9.82 L 121.94 -9.82 Q 122.28 -9.57 122.46 -9.17 Q 122.64 -8.78 122.64 -8.26 L 122.64 -8.26 L 122.64 -2.08 Q 122.64 -1.03 121.94 -0.51 L 121.94 -0.51 Q 121.6 -0.26 121.24 -0.12 Q 120.89 0.01 120.55 0.01 L 120.55 0.01 L 117.72 0.01 Q 117.38 0.01 117.02 -0.12 Q 116.66 -0.26 116.32 -0.51 L 116.32 -0.51 Q 115.99 -0.77 115.8 -1.15 Q 115.62 -1.53 115.62 -2.08 L 115.62 -2.08 L 115.62 -8.26 Q 115.62 -8.78 115.8 -9.17 Q 115.99 -9.57 116.32 -9.82 L 116.32 -9.82 L 116.31 -9.82 Q 116.65 -10.04 117.01 -10.18 Q 117.38 -10.32 117.72 -10.32 L 117.72 -10.32 Z M 118.04 -1.3 L 120.22 -1.3 Q 120.71 -1.3 120.9 -1.57 Q 121.1 -1.85 121.1 -2.18 L 121.1 -2.18 L 121.1 -8.14 Q 121.1 -8.46 120.9 -8.74 Q 120.71 -9.01 120.22 -9.01 L 120.22 -9.01 L 118.04 -9.01 Q 117.56 -9.01 117.36 -8.74 Q 117.17 -8.46 117.17 -8.14 L 117.17 -8.14 L 117.17 -2.18 Q 117.17 -1.85 117.36 -1.57 Q 117.56 -1.3 118.04 -1.3 L 118.04 -1.3 Z M 135.56 -2.73 L 135.56 -9.76 Q 135.56 -10.39 136.33 -10.39 L 136.33 -10.39 Q 137.1 -10.39 137.1 -9.76 L 137.1 -9.76 L 137.1 -0.79 Q 137.1 -0.34 136.62 -0.13 L 136.62 -0.13 L 136.63 -0.13 Q 136.42 -0.04 136.19 0.01 Q 135.95 0.07 135.73 0.07 L 135.73 0.07 Q 135.56 0.07 135.38 0.03 Q 135.2 0 135.04 -0.07 Q 134.88 -0.14 134.74 -0.27 Q 134.6 -0.39 134.52 -0.57 L 134.52 -0.57 L 131.7 -7.61 L 131.35 -7.57 L 131.35 -0.55 Q 131.35 0.08 130.57 0.08 L 130.57 0.08 Q 129.81 0.08 129.81 -0.55 L 129.81 -0.55 L 129.81 -9.5 Q 129.81 -10.04 130.27 -10.22 L 130.27 -10.22 Q 130.7 -10.39 131.18 -10.39 L 131.18 -10.39 Q 131.52 -10.39 131.87 -10.25 Q 132.21 -10.11 132.39 -9.74 L 132.39 -9.74 L 135.2 -2.69 L 135.56 -2.73 Z M 147.29 0.07 L 147.29 0.07 Q 147.03 0.07 146.74 -0.02 Q 146.44 -0.1 146.31 -0.34 L 146.31 -0.34 Q 146.02 -1.35 145.69 -2.42 Q 145.37 -3.48 145.04 -4.51 L 145.04 -4.51 Q 144.68 -5.72 144.26 -7.03 Q 143.84 -8.33 143.48 -9.53 L 143.48 -9.53 Q 143.4 -9.82 143.57 -10.03 Q 143.74 -10.24 144.05 -10.35 L 144.05 -10.35 Q 144.25 -10.4 144.39 -10.4 L 144.39 -10.4 Q 144.83 -10.4 144.96 -9.96 L 144.96 -9.96 L 145.92 -6.88 Q 146.06 -6.41 146.23 -5.85 Q 146.41 -5.29 146.59 -4.71 Q 146.77 -4.12 146.95 -3.54 Q 147.13 -2.96 147.29 -2.47 L 147.29 -2.47 Q 147.54 -3.29 147.83 -4.24 Q 148.12 -5.2 148.43 -6.19 Q 148.73 -7.18 149.03 -8.14 Q 149.33 -9.11 149.59 -9.96 L 149.59 -9.96 Q 149.73 -10.4 150.15 -10.4 L 150.15 -10.4 Q 150.31 -10.4 150.51 -10.35 L 150.51 -10.35 Q 151.23 -10.15 151.07 -9.53 L 151.07 -9.53 Q 150.37 -7.25 149.66 -4.94 Q 148.94 -2.63 148.24 -0.34 L 148.24 -0.34 Q 148.13 -0.08 147.86 -0.01 Q 147.58 0.07 147.29 0.07 Z M 159.11 -9.76 L 159.11 -0.55 Q 159.11 0.08 158.33 0.08 L 158.33 0.08 Q 157.56 0.08 157.56 -0.55 L 157.56 -0.55 L 157.56 -9.76 Q 157.56 -10.39 158.33 -10.39 L 158.33 -10.39 Q 159.11 -10.39 159.11 -9.76 L 159.11 -9.76 Z M 172.15 -2.73 L 172.15 -9.76 Q 172.15 -10.39 172.91 -10.39 L 172.91 -10.39 Q 173.68 -10.39 173.68 -9.76 L 173.68 -9.76 L 173.68 -0.79 Q 173.68 -0.34 173.2 -0.13 L 173.2 -0.13 L 173.21 -0.13 Q 173 -0.04 172.77 0.01 Q 172.54 0.07 172.31 0.07 L 172.31 0.07 Q 172.15 0.07 171.96 0.03 Q 171.78 0 171.62 -0.07 Q 171.46 -0.14 171.32 -0.27 Q 171.18 -0.39 171.11 -0.57 L 171.11 -0.57 L 168.28 -7.61 L 167.93 -7.57 L 167.93 -0.55 Q 167.93 0.08 167.15 0.08 L 167.15 0.08 Q 166.39 0.08 166.39 -0.55 L 166.39 -0.55 L 166.39 -9.5 Q 166.39 -10.04 166.85 -10.22 L 166.85 -10.22 Q 167.28 -10.39 167.76 -10.39 L 167.76 -10.39 Q 168.1 -10.39 168.45 -10.25 Q 168.79 -10.11 168.97 -9.74 L 168.97 -9.74 L 171.78 -2.69 L 172.15 -2.73 Z M 182.42 -9.76 L 182.42 -0.55 Q 182.42 0.08 181.64 0.08 L 181.64 0.08 Q 180.87 0.08 180.87 -0.55 L 180.87 -0.55 L 180.87 -9.76 Q 180.87 -10.39 181.64 -10.39 L 181.64 -10.39 Q 182.42 -10.39 182.42 -9.76 L 182.42 -9.76 Z M 195.29 0.01 L 190.53 0.01 Q 190.05 0.01 189.88 -0.23 Q 189.71 -0.48 189.71 -0.78 L 189.71 -0.78 L 189.71 -9.54 Q 189.71 -9.84 189.88 -10.08 Q 190.05 -10.32 190.53 -10.32 L 190.53 -10.32 L 195.05 -10.32 Q 195.53 -10.32 195.56 -9.67 L 195.56 -9.67 Q 195.58 -9.01 195.05 -9.01 L 195.05 -9.01 L 191.24 -9.01 L 191.24 -1.3 L 195.29 -1.3 Q 195.77 -1.3 195.78 -0.66 L 195.78 -0.66 Q 195.81 0.01 195.29 0.01 L 195.29 0.01 Z M 194.57 -5.37 L 194.57 -5.37 Q 194.57 -4.91 194.25 -4.6 Q 193.93 -4.29 193.48 -4.29 L 193.48 -4.29 Q 193.04 -4.29 192.72 -4.6 Q 192.41 -4.91 192.41 -5.37 L 192.41 -5.37 Q 192.41 -5.82 192.72 -6.14 Q 193.04 -6.45 193.48 -6.45 L 193.48 -6.45 Q 193.93 -6.45 194.25 -6.14 Q 194.57 -5.82 194.57 -5.37 Z M 208.14 -2.73 L 208.14 -9.76 Q 208.14 -10.39 208.91 -10.39 L 208.91 -10.39 Q 209.68 -10.39 209.68 -9.76 L 209.68 -9.76 L 209.68 -0.79 Q 209.68 -0.34 209.2 -0.13 L 209.2 -0.13 L 209.21 -0.13 Q 209 -0.04 208.77 0.01 Q 208.53 0.07 208.31 0.07 L 208.31 0.07 Q 208.14 0.07 207.96 0.03 Q 207.78 0 207.62 -0.07 Q 207.45 -0.14 207.32 -0.27 Q 207.18 -0.39 207.1 -0.57 L 207.1 -0.57 L 204.28 -7.61 L 203.93 -7.57 L 203.93 -0.55 Q 203.93 0.08 203.15 0.08 L 203.15 0.08 Q 202.38 0.08 202.38 -0.55 L 202.38 -0.55 L 202.38 -9.5 Q 202.38 -10.04 202.85 -10.22 L 202.85 -10.22 Q 203.28 -10.39 203.76 -10.39 L 203.76 -10.39 Q 204.1 -10.39 204.44 -10.25 Q 204.79 -10.11 204.97 -9.74 L 204.97 -9.74 L 207.78 -2.69 L 208.14 -2.73 Z M 223.82 -2.94 L 223.82 -2.08 Q 223.82 -1.03 223.12 -0.51 L 223.12 -0.51 Q 222.78 -0.26 222.42 -0.12 Q 222.07 0.01 221.73 0.01 L 221.73 0.01 L 218.89 0.01 Q 218.56 0.01 218.2 -0.12 Q 217.84 -0.26 217.5 -0.51 L 217.5 -0.51 Q 217.16 -0.77 216.98 -1.15 Q 216.8 -1.53 216.8 -2.08 L 216.8 -2.08 L 216.8 -8.26 Q 216.8 -8.78 216.98 -9.17 Q 217.16 -9.57 217.5 -9.82 L 217.5 -9.82 L 217.49 -9.82 Q 217.83 -10.04 218.19 -10.18 Q 218.56 -10.32 218.89 -10.32 L 218.89 -10.32 L 221.73 -10.32 Q 222.07 -10.32 222.43 -10.18 Q 222.79 -10.04 223.13 -9.82 L 223.13 -9.82 L 223.12 -9.82 Q 223.46 -9.57 223.64 -9.17 Q 223.82 -8.78 223.82 -8.26 L 223.82 -8.26 L 223.82 -7.36 Q 223.82 -6.73 223.04 -6.73 L 223.04 -6.73 Q 222.27 -6.73 222.27 -7.36 L 222.27 -7.36 L 222.27 -8.14 Q 222.27 -8.46 222.08 -8.74 Q 221.88 -9.01 221.4 -9.01 L 221.4 -9.01 L 219.22 -9.01 Q 218.74 -9.01 218.54 -8.74 Q 218.35 -8.46 218.35 -8.14 L 218.35 -8.14 L 218.35 -2.18 Q 218.35 -1.85 218.54 -1.57 Q 218.74 -1.3 219.22 -1.3 L 219.22 -1.3 L 221.4 -1.3 Q 221.88 -1.3 222.08 -1.57 Q 222.27 -1.85 222.27 -2.18 L 222.27 -2.18 L 222.27 -2.94 Q 222.27 -3.55 223.04 -3.55 L 223.04 -3.55 Q 223.82 -3.55 223.82 -2.94 L 223.82 -2.94 Z M 236.5 0.01 L 231.74 0.01 Q 231.26 0.01 231.09 -0.23 Q 230.92 -0.48 230.92 -0.78 L 230.92 -0.78 L 230.92 -9.54 Q 230.92 -9.84 231.09 -10.08 Q 231.26 -10.32 231.74 -10.32 L 231.74 -10.32 L 236.26 -10.32 Q 236.74 -10.32 236.77 -9.67 L 236.77 -9.67 Q 236.79 -9.01 236.26 -9.01 L 236.26 -9.01 L 232.45 -9.01 L 232.45 -1.3 L 236.5 -1.3 Q 236.98 -1.3 236.99 -0.66 L 236.99 -0.66 Q 237.02 0.01 236.5 0.01 L 236.5 0.01 Z M 235.78 -5.37 L 235.78 -5.37 Q 235.78 -4.91 235.46 -4.6 Q 235.14 -4.29 234.69 -4.29 L 234.69 -4.29 Q 234.25 -4.29 233.93 -4.6 Q 233.62 -4.91 233.62 -5.37 L 233.62 -5.37 Q 233.62 -5.82 233.93 -6.14 Q 234.25 -6.45 234.69 -6.45 L 234.69 -6.45 Q 235.14 -6.45 235.46 -6.14 Q 235.78 -5.82 235.78 -5.37 Z" stroke-linecap="round" />
</g>
</g>
</g>
</svg>